ply
format ascii 1.0
comment PCL generated
element vertex 500
property float x
property float y
property float z
property uchar red
property uchar green
property uchar blue
property float nx
property float ny
property float nz
property float curvature
element camera 1
property float view_px
property float view_py
property float view_pz
property float x_axisx
property float x_axisy
property float x_axisz
property float y_axisx
property float y_axisy
property float y_axisz
property float z_axisx
property float z_axisy
property float z_axisz
property float focal
property float scalex
property float scaley
property float centerx
property float centery
property int viewportx
property int viewporty
property float k1
property float k2
end_header
0.79465967 0 0 0 250 250 0 0 0 0
1.0084605 0 0 0 250 250 0 0 0 0
1.1008637 0 0 0 250 250 0 0 0 0
1.1548026 0 0 0 250 250 0 0 0 0
1.1819211 0 0 0 250 250 0 0 0 0
1.1814724 0 0 0 250 250 0 0 0 0
1.1907705 0 0 0 250 250 0 0 0 0
1.1876328 0 0 0 250 250 0 0 0 0
1.1693828 0 0 0 250 250 0 0 0 0
1.1318337 0 0 0 250 250 0 0 0 0
1.1120534 0 0 0 250 250 0 0 0 0
1.0617583 0 0 0 250 250 0 0 0 0
0.97288412 0 0 0 250 250 0 0 0 0
0.95797193 0 0 0 250 250 0 0 0 0
0.90305662 0 0 0 250 250 0 0 0 0
0.82226342 0 0 0 250 250 0 0 0 0
0.73228842 0 0 0 250 250 0 0 0 0
0.68664193 0 0 0 250 250 0 0 0 0
0.63490498 0 0 0 250 250 0 0 0 0
0.53655851 0 0 0 250 250 0 0 0 0
0.50898588 0 0 0 250 250 0 0 0 0
0.42138276 0 0 0 250 250 0 0 0 0
0.30288261 0 0 0 250 250 0 0 0 0
0.26760775 0 0 0 250 250 0 0 0 0
0.19316781 0 0 0 250 250 0 0 0 0
0.073161952 0 0 0 250 250 0 0 0 0
-0.052703638 0 0 0 250 250 0 0 0 0
-0.081344955 0 0 0 250 250 0 0 0 0
-0.14712119 0 0 0 250 250 0 0 0 0
-0.25148857 0 0 0 250 250 0 0 0 0
-0.30514276 0 0 0 250 250 0 0 0 0
-0.37940404 0 0 0 250 250 0 0 0 0
-0.50848716 0 0 0 250 250 0 0 0 0
-0.64350009 0 0 0 250 250 0 0 0 0
-0.67343211 0 0 0 250 250 0 0 0 0
-0.74797744 0 0 0 250 250 0 0 0 0
-0.87890857 0 0 0 250 250 0 0 0 0
-0.94030744 0 0 0 250 250 0 0 0 0
-0.99891257 0 0 0 250 250 0 0 0 0
-1.1352741 0 0 0 250 250 0 0 0 0
-1.1601378 0 0 0 250 250 0 0 0 0
-1.243917 0 0 0 250 250 0 0 0 0
-1.3583304 0 0 0 250 250 0 0 0 0
-1.5143396 0 0 0 250 250 0 0 0 0
-1.5458494 0 0 0 250 250 0 0 0 0
-1.6544634 0 0 0 250 250 0 0 0 0
-1.7749078 0 0 0 250 250 0 0 0 0
-1.8073128 0 0 0 250 250 0 0 0 0
-1.8775069 0 0 0 250 250 0 0 0 0
-2.0088153 0 0 0 250 250 0 0 0 0
-2.0578835 0 0 0 250 250 0 0 0 0
-2.139828 0 0 0 250 250 0 0 0 0
-2.283093 0 0 0 250 250 0 0 0 0
-2.4019649 0 0 0 250 250 0 0 0 0
-2.4566038 0 0 0 250 250 0 0 0 0
-2.4988527 0 0 0 250 250 0 0 0 0
-2.6290352 0 0 0 250 250 0 0 0 0
-2.6634564 0 0 0 250 250 0 0 0 0
-2.7466385 0 0 0 250 250 0 0 0 0
-2.8751018 0 0 0 250 250 0 0 0 0
-3.0213192 0 0 0 250 250 0 0 0 0
-3.0665004 0 0 0 250 250 0 0 0 0
-3.1424351 0 0 0 250 250 0 0 0 0
-3.270504 0 0 0 250 250 0 0 0 0
-3.3091271 0 0 0 250 250 0 0 0 0
-3.3994896 0 0 0 250 250 0 0 0 0
-3.5016849 0 0 0 250 250 0 0 0 0
-3.6362717 0 0 0 250 250 0 0 0 0
-3.6925437 0 0 0 250 250 0 0 0 0
-3.7713585 0 0 0 250 250 0 0 0 0
-3.9309454 0 0 0 250 250 0 0 0 0
-3.9757602 0 0 0 250 250 0 0 0 0
-4.036078 0 0 0 250 250 0 0 0 0
-4.1569657 0 0 0 250 250 0 0 0 0
-4.1901441 0 0 0 250 250 0 0 0 0
-4.2685666 0 0 0 250 250 0 0 0 0
-4.3996191 0 0 0 250 250 0 0 0 0
-4.5196972 0 0 0 250 250 0 0 0 0
-4.5621505 0 0 0 250 250 0 0 0 0
-4.6389408 0 0 0 250 250 0 0 0 0
-4.7556047 0 0 0 250 250 0 0 0 0
-4.7569447 0 0 0 250 250 0 0 0 0
-4.850565 0 0 0 250 250 0 0 0 0
-4.9750371 0 0 0 250 250 0 0 0 0
-5.0804067 0 0 0 250 250 0 0 0 0
-5.12289 0 0 0 250 250 0 0 0 0
-5.1835713 0 0 0 250 250 0 0 0 0
-5.3242679 0 0 0 250 250 0 0 0 0
-5.3662853 0 0 0 250 250 0 0 0 0
-5.4553456 0 0 0 250 250 0 0 0 0
-5.6276703 0 0 0 250 250 0 0 0 0
-5.662405 0 0 0 250 250 0 0 0 0
-5.7641034 0 0 0 250 250 0 0 0 0
-5.9146452 0 0 0 250 250 0 0 0 0
-6.0735645 0 0 0 250 250 0 0 0 0
-6.1073265 0 0 0 250 250 0 0 0 0
-6.2704577 0 0 0 250 250 0 0 0 0
-6.4329863 0 0 0 250 250 0 0 0 0
-6.506741 0 0 0 250 250 0 0 0 0
-6.6023006 0 0 0 250 250 0 0 0 0
-6.7922249 0 0 0 250 250 0 0 0 0
-6.9708467 0 0 0 250 250 0 0 0 0
-7.0003014 0 0 0 250 250 0 0 0 0
-7.1250629 0 0 0 250 250 0 0 0 0
-7.3191681 0 0 0 250 250 0 0 0 0
-7.3714571 0 0 0 250 250 0 0 0 0
-7.5103364 0 0 0 250 250 0 0 0 0
-7.6882496 0 0 0 250 250 0 0 0 0
-7.7136745 0 0 0 250 250 0 0 0 0
-7.8009057 0 0 0 250 250 0 0 0 0
-7.8093696 0 0 0 250 250 0 0 0 0
-7.9920244 0 0 0 250 250 0 0 0 0
-8.0428009 0 0 0 250 250 0 0 0 0
-8.1565533 0 0 0 250 250 0 0 0 0
-8.2363749 0 0 0 250 250 0 0 0 0
-8.2776604 0 0 0 250 250 0 0 0 0
-8.3972521 0 0 0 250 250 0 0 0 0
-8.5508251 0 0 0 250 250 0 0 0 0
-8.5922003 0 0 0 250 250 0 0 0 0
-8.6375294 0 0 0 250 250 0 0 0 0
-8.7397652 0 0 0 250 250 0 0 0 0
-8.8525906 0 0 0 250 250 0 0 0 0
-8.8858194 0 0 0 250 250 0 0 0 0
-8.9481068 0 0 0 250 250 0 0 0 0
-9.0883522 0 0 0 250 250 0 0 0 0
-9.0993805 0 0 0 250 250 0 0 0 0
-9.1990471 0 0 0 250 250 0 0 0 0
-9.312005 0 0 0 250 250 0 0 0 0
-9.4264269 0 0 0 250 250 0 0 0 0
-9.4876986 0 0 0 250 250 0 0 0 0
-9.5777493 0 0 0 250 250 0 0 0 0
-9.7225895 0 0 0 250 250 0 0 0 0
-9.7518845 0 0 0 250 250 0 0 0 0
-9.8448524 0 0 0 250 250 0 0 0 0
-9.9627218 0 0 0 250 250 0 0 0 0
-9.9874496 0 0 0 250 250 0 0 0 0
-10.057149 0 0 0 250 250 0 0 0 0
-10.157377 0 0 0 250 250 0 0 0 0
-10.270574 0 0 0 250 250 0 0 0 0
-10.326893 0 0 0 250 250 0 0 0 0
-10.429891 0 0 0 250 250 0 0 0 0
-10.555184 0 0 0 250 250 0 0 0 0
-10.592916 0 0 0 250 250 0 0 0 0
-10.669451 0 0 0 250 250 0 0 0 0
-10.784957 0 0 0 250 250 0 0 0 0
-10.862272 0 0 0 250 250 0 0 0 0
-10.876409 0 0 0 250 250 0 0 0 0
-10.93209 0 0 0 250 250 0 0 0 0
-10.99953 0 0 0 250 250 0 0 0 0
-11.048334 0 0 0 250 250 0 0 0 0
-11.063603 0 0 0 250 250 0 0 0 0
-11.136133 0 0 0 250 250 0 0 0 0
-11.173951 0 0 0 250 250 0 0 0 0
-11.18684 0 0 0 250 250 0 0 0 0
-11.177355 0 0 0 250 250 0 0 0 0
-11.182001 0 0 0 250 250 0 0 0 0
-11.177328 0 0 0 250 250 0 0 0 0
-11.169283 0 0 0 250 250 0 0 0 0
-11.169791 0 0 0 250 250 0 0 0 0
-11.167584 0 0 0 250 250 0 0 0 0
-11.164045 0 0 0 250 250 0 0 0 0
-11.14656 0 0 0 250 250 0 0 0 0
-11.131083 0 0 0 250 250 0 0 0 0
-11.113655 0 0 0 250 250 0 0 0 0
-11.087932 0 0 0 250 250 0 0 0 0
-11.069606 0 0 0 250 250 0 0 0 0
-11.056467 0 0 0 250 250 0 0 0 0
-11.07253 0 0 0 250 250 0 0 0 0
-11.040708 0 0 0 250 250 0 0 0 0
-11.007321 0 0 0 250 250 0 0 0 0
-10.978507 0 0 0 250 250 0 0 0 0
-10.995523 0 0 0 250 250 0 0 0 0
-10.907005 0 0 0 250 250 0 0 0 0
-10.884805 0 0 0 250 250 0 0 0 0
-10.870499 0 0 0 250 250 0 0 0 0
-10.844345 0 0 0 250 250 0 0 0 0
-10.836918 0 0 0 250 250 0 0 0 0
-10.806436 0 0 0 250 250 0 0 0 0
-10.797715 0 0 0 250 250 0 0 0 0
-10.760046 0 0 0 250 250 0 0 0 0
-10.761643 0 0 0 250 250 0 0 0 0
-10.745122 0 0 0 250 250 0 0 0 0
-10.726286 0 0 0 250 250 0 0 0 0
-10.749374 0 0 0 250 250 0 0 0 0
-10.75021 0 0 0 250 250 0 0 0 0
-10.761467 0 0 0 250 250 0 0 0 0
-10.74966 0 0 0 250 250 0 0 0 0
-10.754914 0 0 0 250 250 0 0 0 0
-10.746255 0 0 0 250 250 0 0 0 0
-10.70726 0 0 0 250 250 0 0 0 0
-10.714184 0 0 0 250 250 0 0 0 0
-10.685958 0 0 0 250 250 0 0 0 0
-10.677016 0 0 0 250 250 0 0 0 0
-10.644058 0 0 0 250 250 0 0 0 0
-10.655123 0 0 0 250 250 0 0 0 0
-10.648653 0 0 0 250 250 0 0 0 0
-10.620195 0 0 0 250 250 0 0 0 0
-10.624933 0 0 0 250 250 0 0 0 0
-10.588671 0 0 0 250 250 0 0 0 0
-10.555002 0 0 0 250 250 0 0 0 0
-10.543621 0 0 0 250 250 0 0 0 0
-10.519862 0 0 0 250 250 0 0 0 0
-10.498692 0 0 0 250 250 0 0 0 0
-10.487494 0 0 0 250 250 0 0 0 0
-10.478681 0 0 0 250 250 0 0 0 0
-10.472735 0 0 0 250 250 0 0 0 0
-10.460461 0 0 0 250 250 0 0 0 0
-10.446768 0 0 0 250 250 0 0 0 0
-10.434088 0 0 0 250 250 0 0 0 0
-10.41291 0 0 0 250 250 0 0 0 0
-10.421409 0 0 0 250 250 0 0 0 0
-10.40143 0 0 0 250 250 0 0 0 0
-10.419067 0 0 0 250 250 0 0 0 0
-10.431679 0 0 0 250 250 0 0 0 0
-10.386463 0 0 0 250 250 0 0 0 0
-10.416268 0 0 0 250 250 0 0 0 0
-10.400549 0 0 0 250 250 0 0 0 0
-10.386951 0 0 0 250 250 0 0 0 0
-10.420892 0 0 0 250 250 0 0 0 0
-10.433603 0 0 0 250 250 0 0 0 0
-10.457298 0 0 0 250 250 0 0 0 0
-10.472408 0 0 0 250 250 0 0 0 0
-10.491206 0 0 0 250 250 0 0 0 0
-10.498659 0 0 0 250 250 0 0 0 0
-10.479607 0 0 0 250 250 0 0 0 0
-10.475784 0 0 0 250 250 0 0 0 0
-10.498678 0 0 0 250 250 0 0 0 0
-10.535204 0 0 0 250 250 0 0 0 0
-10.55706 0 0 0 250 250 0 0 0 0
-10.616492 0 0 0 250 250 0 0 0 0
-10.687402 0 0 0 250 250 0 0 0 0
-10.696451 0 0 0 250 250 0 0 0 0
-10.705787 0 0 0 250 250 0 0 0 0
-10.73216 0 0 0 250 250 0 0 0 0
-10.733266 0 0 0 250 250 0 0 0 0
-10.732714 0 0 0 250 250 0 0 0 0
-10.743723 0 0 0 250 250 0 0 0 0
-10.754373 0 0 0 250 250 0 0 0 0
-10.785894 0 0 0 250 250 0 0 0 0
-10.791907 0 0 0 250 250 0 0 0 0
-10.82004 0 0 0 250 250 0 0 0 0
-10.822446 0 0 0 250 250 0 0 0 0
-10.832142 0 0 0 250 250 0 0 0 0
-10.820169 0 0 0 250 250 0 0 0 0
-10.813265 0 0 0 250 250 0 0 0 0
-10.823422 0 0 0 250 250 0 0 0 0
-10.827944 0 0 0 250 250 0 0 0 0
-10.891731 0 0 0 250 250 0 0 0 0
-10.887473 0 0 0 250 250 0 0 0 0
-10.89028 0 0 0 250 250 0 0 0 0
-10.925704 0 0 0 250 250 0 0 0 0
-10.911482 0 0 0 250 250 0 0 0 0
-10.934089 0 0 0 250 250 0 0 0 0
-10.92777 0 0 0 250 250 0 0 0 0
-10.912055 0 0 0 250 250 0 0 0 0
-10.912276 0 0 0 250 250 0 0 0 0
-10.907131 0 0 0 250 250 0 0 0 0
-10.931272 0 0 0 250 250 0 0 0 0
-10.925098 0 0 0 250 250 0 0 0 0
-10.941025 0 0 0 250 250 0 0 0 0
-10.919817 0 0 0 250 250 0 0 0 0
-10.92561 0 0 0 250 250 0 0 0 0
-10.923041 0 0 0 250 250 0 0 0 0
-10.920181 0 0 0 250 250 0 0 0 0
-10.908947 0 0 0 250 250 0 0 0 0
-10.903698 0 0 0 250 250 0 0 0 0
-10.914352 0 0 0 250 250 0 0 0 0
-10.912775 0 0 0 250 250 0 0 0 0
-10.920612 0 0 0 250 250 0 0 0 0
-10.884789 0 0 0 250 250 0 0 0 0
-10.881624 0 0 0 250 250 0 0 0 0
-10.872376 0 0 0 250 250 0 0 0 0
-10.877319 0 0 0 250 250 0 0 0 0
-10.860596 0 0 0 250 250 0 0 0 0
-10.873553 0 0 0 250 250 0 0 0 0
-10.871907 0 0 0 250 250 0 0 0 0
-10.879039 0 0 0 250 250 0 0 0 0
-10.866645 0 0 0 250 250 0 0 0 0
-10.881093 0 0 0 250 250 0 0 0 0
-10.865105 0 0 0 250 250 0 0 0 0
-10.844013 0 0 0 250 250 0 0 0 0
-10.817577 0 0 0 250 250 0 0 0 0
-10.816118 0 0 0 250 250 0 0 0 0
-10.789874 0 0 0 250 250 0 0 0 0
-10.761973 0 0 0 250 250 0 0 0 0
-10.736415 0 0 0 250 250 0 0 0 0
-10.682084 0 0 0 250 250 0 0 0 0
-10.602521 0 0 0 250 250 0 0 0 0
-10.581012 0 0 0 250 250 0 0 0 0
-10.500142 0 0 0 250 250 0 0 0 0
-10.379195 0 0 0 250 250 0 0 0 0
-10.29112 0 0 0 250 250 0 0 0 0
-10.24522 0 0 0 250 250 0 0 0 0
-10.17607 0 0 0 250 250 0 0 0 0
-10.048083 0 0 0 250 250 0 0 0 0
-10.022843 0 0 0 250 250 0 0 0 0
-9.9119873 0 0 0 250 250 0 0 0 0
-9.7760296 0 0 0 250 250 0 0 0 0
-9.6299 0 0 0 250 250 0 0 0 0
-9.6117153 0 0 0 250 250 0 0 0 0
-9.5101385 0 0 0 250 250 0 0 0 0
-9.3801565 0 0 0 250 250 0 0 0 0
-9.3270111 0 0 0 250 250 0 0 0 0
-9.2103548 0 0 0 250 250 0 0 0 0
-9.0724859 0 0 0 250 250 0 0 0 0
-8.9103966 0 0 0 250 250 0 0 0 0
-8.8562241 0 0 0 250 250 0 0 0 0
-8.7483988 0 0 0 250 250 0 0 0 0
-8.6007023 0 0 0 250 250 0 0 0 0
-8.5518131 0 0 0 250 250 0 0 0 0
-8.4671354 0 0 0 250 250 0 0 0 0
-8.2822742 0 0 0 250 250 0 0 0 0
-8.2429094 0 0 0 250 250 0 0 0 0
-8.1392641 0 0 0 250 250 0 0 0 0
-7.9727178 0 0 0 250 250 0 0 0 0
-7.8070688 0 0 0 250 250 0 0 0 0
-7.7780108 0 0 0 250 250 0 0 0 0
-7.6719723 0 0 0 250 250 0 0 0 0
-7.5450497 0 0 0 250 250 0 0 0 0
-7.4934616 0 0 0 250 250 0 0 0 0
-7.3831344 0 0 0 250 250 0 0 0 0
-7.2325001 0 0 0 250 250 0 0 0 0
-7.0560269 0 0 0 250 250 0 0 0 0
-6.9907031 0 0 0 250 250 0 0 0 0
-6.8810301 0 0 0 250 250 0 0 0 0
-6.7279639 0 0 0 250 250 0 0 0 0
-6.6654539 0 0 0 250 250 0 0 0 0
-6.5606389 0 0 0 250 250 0 0 0 0
-6.3970428 0 0 0 250 250 0 0 0 0
-6.3582826 0 0 0 250 250 0 0 0 0
-6.2188916 0 0 0 250 250 0 0 0 0
-6.045444 0 0 0 250 250 0 0 0 0
-5.8825898 0 0 0 250 250 0 0 0 0
-5.8438177 0 0 0 250 250 0 0 0 0
-5.7386422 0 0 0 250 250 0 0 0 0
-5.5998883 0 0 0 250 250 0 0 0 0
-5.5477977 0 0 0 250 250 0 0 0 0
-5.4220624 0 0 0 250 250 0 0 0 0
-5.2688808 0 0 0 250 250 0 0 0 0
-5.1036243 0 0 0 250 250 0 0 0 0
-5.059536 0 0 0 250 250 0 0 0 0
-4.939363 0 0 0 250 250 0 0 0 0
-4.792613 0 0 0 250 250 0 0 0 0
-4.7488065 0 0 0 250 250 0 0 0 0
-4.6583638 0 0 0 250 250 0 0 0 0
-4.5001593 0 0 0 250 250 0 0 0 0
-4.4437013 0 0 0 250 250 0 0 0 0
-4.3252044 0 0 0 250 250 0 0 0 0
-4.164547 0 0 0 250 250 0 0 0 0
-3.9944241 0 0 0 250 250 0 0 0 0
-3.9697185 0 0 0 250 250 0 0 0 0
-3.8631911 0 0 0 250 250 0 0 0 0
-3.7163486 0 0 0 250 250 0 0 0 0
-3.6534035 0 0 0 250 250 0 0 0 0
-3.540853 0 0 0 250 250 0 0 0 0
-3.3597505 0 0 0 250 250 0 0 0 0
-3.3077617 0 0 0 250 250 0 0 0 0
-3.1745739 0 0 0 250 250 0 0 0 0
-2.9897125 0 0 0 250 250 0 0 0 0
-2.7855756 0 0 0 250 250 0 0 0 0
-2.7176776 0 0 0 250 250 0 0 0 0
-2.6004241 0 0 0 250 250 0 0 0 0
-2.3817527 0 0 0 250 250 0 0 0 0
-2.3137836 0 0 0 250 250 0 0 0 0
-2.1677077 0 0 0 250 250 0 0 0 0
-1.9446951 0 0 0 250 250 0 0 0 0
-1.711529 0 0 0 250 250 0 0 0 0
-1.6370232 0 0 0 250 250 0 0 0 0
-1.4981276 0 0 0 250 250 0 0 0 0
-1.2686117 0 0 0 250 250 0 0 0 0
-1.1933823 0 0 0 250 250 0 0 0 0
-1.0498065 0 0 0 250 250 0 0 0 0
-0.83843744 0 0 0 250 250 0 0 0 0
-0.76909584 0 0 0 250 250 0 0 0 0
-0.61849558 0 0 0 250 250 0 0 0 0
-0.37844539 0 0 0 250 250 0 0 0 0
-0.17382763 0 0 0 250 250 0 0 0 0
-0.10835022 0 0 0 250 250 0 0 0 0
0.022491731 0 0 0 250 250 0 0 0 0
0.22225349 0 0 0 250 250 0 0 0 0
0.28563076 0 0 0 250 250 0 0 0 0
0.40491897 0 0 0 250 250 0 0 0 0
0.62008017 0 0 0 250 250 0 0 0 0
0.82351565 0 0 0 250 250 0 0 0 0
0.86169738 0 0 0 250 250 0 0 0 0
0.9864434 0 0 0 250 250 0 0 0 0
1.1592396 0 0 0 250 250 0 0 0 0
1.2007103 0 0 0 250 250 0 0 0 0
1.3206459 0 0 0 250 250 0 0 0 0
1.4745249 0 0 0 250 250 0 0 0 0
1.520888 0 0 0 250 250 0 0 0 0
1.6409903 0 0 0 250 250 0 0 0 0
1.8397725 0 0 0 250 250 0 0 0 0
1.9891071 0 0 0 250 250 0 0 0 0
2.0375481 0 0 0 250 250 0 0 0 0
2.1437628 0 0 0 250 250 0 0 0 0
2.2780945 0 0 0 250 250 0 0 0 0
2.3161707 0 0 0 250 250 0 0 0 0
2.4157186 0 0 0 250 250 0 0 0 0
2.6002553 0 0 0 250 250 0 0 0 0
2.7826252 0 0 0 250 250 0 0 0 0
2.8158662 0 0 0 250 250 0 0 0 0
2.9266112 0 0 0 250 250 0 0 0 0
3.0884438 0 0 0 250 250 0 0 0 0
3.1529694 0 0 0 250 250 0 0 0 0
3.2330818 0 0 0 250 250 0 0 0 0
3.4052474 0 0 0 250 250 0 0 0 0
3.5631769 0 0 0 250 250 0 0 0 0
3.6281881 0 0 0 250 250 0 0 0 0
3.7466903 0 0 0 250 250 0 0 0 0
3.9146633 0 0 0 250 250 0 0 0 0
3.9772048 0 0 0 250 250 0 0 0 0
4.0556827 0 0 0 250 250 0 0 0 0
4.1950488 0 0 0 250 250 0 0 0 0
4.2470188 0 0 0 250 250 0 0 0 0
4.3411508 0 0 0 250 250 0 0 0 0
4.5023179 0 0 0 250 250 0 0 0 0
4.6518416 0 0 0 250 250 0 0 0 0
4.7131324 0 0 0 250 250 0 0 0 0
4.8332739 0 0 0 250 250 0 0 0 0
4.9709835 0 0 0 250 250 0 0 0 0
5.0055804 0 0 0 250 250 0 0 0 0
5.1091466 0 0 0 250 250 0 0 0 0
5.2234054 0 0 0 250 250 0 0 0 0
5.2882676 0 0 0 250 250 0 0 0 0
5.4153848 0 0 0 250 250 0 0 0 0
5.5529671 0 0 0 250 250 0 0 0 0
5.7275448 0 0 0 250 250 0 0 0 0
5.7745471 0 0 0 250 250 0 0 0 0
5.8866506 0 0 0 250 250 0 0 0 0
6.0233464 0 0 0 250 250 0 0 0 0
6.0694838 0 0 0 250 250 0 0 0 0
6.1730037 0 0 0 250 250 0 0 0 0
6.360734 0 0 0 250 250 0 0 0 0
6.507791 0 0 0 250 250 0 0 0 0
6.5626378 0 0 0 250 250 0 0 0 0
6.6599793 0 0 0 250 250 0 0 0 0
6.8073816 0 0 0 250 250 0 0 0 0
6.8444996 0 0 0 250 250 0 0 0 0
6.930944 0 0 0 250 250 0 0 0 0
7.0707622 0 0 0 250 250 0 0 0 0
7.0935206 0 0 0 250 250 0 0 0 0
7.2386932 0 0 0 250 250 0 0 0 0
7.3551083 0 0 0 250 250 0 0 0 0
7.5269828 0 0 0 250 250 0 0 0 0
7.5549898 0 0 0 250 250 0 0 0 0
7.6560092 0 0 0 250 250 0 0 0 0
7.7863159 0 0 0 250 250 0 0 0 0
7.8273172 0 0 0 250 250 0 0 0 0
7.9433708 0 0 0 250 250 0 0 0 0
8.1235619 0 0 0 250 250 0 0 0 0
8.2641325 0 0 0 250 250 0 0 0 0
8.325243 0 0 0 250 250 0 0 0 0
8.4086914 0 0 0 250 250 0 0 0 0
8.5713949 0 0 0 250 250 0 0 0 0
8.6266203 0 0 0 250 250 0 0 0 0
8.7276716 0 0 0 250 250 0 0 0 0
8.8967981 0 0 0 250 250 0 0 0 0
8.954855 0 0 0 250 250 0 0 0 0
9.0769367 0 0 0 250 250 0 0 0 0
9.2220211 0 0 0 250 250 0 0 0 0
9.3730831 0 0 0 250 250 0 0 0 0
9.4288549 0 0 0 250 250 0 0 0 0
9.507947 0 0 0 250 250 0 0 0 0
9.6117039 0 0 0 250 250 0 0 0 0
9.7220144 0 0 0 250 250 0 0 0 0
9.7711954 0 0 0 250 250 0 0 0 0
9.8278131 0 0 0 250 250 0 0 0 0
9.9401522 0 0 0 250 250 0 0 0 0
9.9862537 0 0 0 250 250 0 0 0 0
10.027422 0 0 0 250 250 0 0 0 0
10.074912 0 0 0 250 250 0 0 0 0
10.095302 0 0 0 250 250 0 0 0 0
10.126721 0 0 0 250 250 0 0 0 0
10.153107 0 0 0 250 250 0 0 0 0
10.180457 0 0 0 250 250 0 0 0 0
10.180986 0 0 0 250 250 0 0 0 0
10.205417 0 0 0 250 250 0 0 0 0
10.212571 0 0 0 250 250 0 0 0 0
10.226714 0 0 0 250 250 0 0 0 0
10.198455 0 0 0 250 250 0 0 0 0
10.169419 0 0 0 250 250 0 0 0 0
10.165438 0 0 0 250 250 0 0 0 0
10.198128 0 0 0 250 250 0 0 0 0
10.143623 0 0 0 250 250 0 0 0 0
10.115588 0 0 0 250 250 0 0 0 0
10.098607 0 0 0 250 250 0 0 0 0
10.067552 0 0 0 250 250 0 0 0 0
9.9659042 0 0 0 250 250 0 0 0 0
9.9057407 0 0 0 250 250 0 0 0 0
9.8784122 0 0 0 250 250 0 0 0 0
9.8404198 0 0 0 250 250 0 0 0 0
9.7775583 0 0 0 250 250 0 0 0 0
9.7557116 0 0 0 250 250 0 0 0 0
9.7137175 0 0 0 250 250 0 0 0 0
9.6386995 0 0 0 250 250 0 0 0 0
9.6389093 0 0 0 250 250 0 0 0 0
9.5694437 0 0 0 250 250 0 0 0 0
9.460041 0 0 0 250 250 0 0 0 0
9.3896742 0 0 0 250 250 0 0 0 0
0 0 0 1 0 0 0 1 0 0 0 1 0 0 0 0 0 500 1 0 0
