ply
format ascii 1.0
comment PCL generated
element vertex 100
property float x
property float y
property float z
property uchar red
property uchar green
property uchar blue
property float nx
property float ny
property float nz
property float curvature
element camera 1
property float view_px
property float view_py
property float view_pz
property float x_axisx
property float x_axisy
property float x_axisz
property float y_axisx
property float y_axisy
property float y_axisz
property float z_axisx
property float z_axisy
property float z_axisz
property float focal
property float scalex
property float scaley
property float centerx
property float centery
property int viewportx
property int viewporty
property float k1
property float k2
end_header
0.0084214415 0 0 0 250 250 0 0 0 0
0.022710722 0 0 0 250 250 0 0 0 0
0.034758057 0 0 0 250 250 0 0 0 0
0.050515708 0 0 0 250 250 0 0 0 0
0.070123516 0 0 0 250 250 0 0 0 0
0.08797951 0 0 0 250 250 0 0 0 0
0.10599783 0 0 0 250 250 0 0 0 0
0.12390218 0 0 0 250 250 0 0 0 0
0.14675789 0 0 0 250 250 0 0 0 0
0.16734844 0 0 0 250 250 0 0 0 0
0.21421658 0 0 0 250 250 0 0 0 0
0.22124365 0 0 0 250 250 0 0 0 0
0.27639979 0 0 0 250 250 0 0 0 0
0.31752613 0 0 0 250 250 0 0 0 0
0.39199719 0 0 0 250 250 0 0 0 0
0.43459851 0 0 0 250 250 0 0 0 0
0.51540548 0 0 0 250 250 0 0 0 0
0.57865256 0 0 0 250 250 0 0 0 0
0.64647847 0 0 0 250 250 0 0 0 0
0.72311199 0 0 0 250 250 0 0 0 0
0.77781421 0 0 0 250 250 0 0 0 0
0.84109735 0 0 0 250 250 0 0 0 0
0.92872679 0 0 0 250 250 0 0 0 0
0.98453337 0 0 0 250 250 0 0 0 0
1.0910704 0 0 0 250 250 0 0 0 0
1.1507976 0 0 0 250 250 0 0 0 0
1.2476729 0 0 0 250 250 0 0 0 0
1.3026235 0 0 0 250 250 0 0 0 0
1.4402359 0 0 0 250 250 0 0 0 0
1.4921376 0 0 0 250 250 0 0 0 0
1.6545312 0 0 0 250 250 0 0 0 0
1.7197734 0 0 0 250 250 0 0 0 0
1.8555171 0 0 0 250 250 0 0 0 0
1.9273292 0 0 0 250 250 0 0 0 0
2.0688148 0 0 0 250 250 0 0 0 0
2.1422954 0 0 0 250 250 0 0 0 0
2.244211 0 0 0 250 250 0 0 0 0
2.3111429 0 0 0 250 250 0 0 0 0
2.4400711 0 0 0 250 250 0 0 0 0
2.5246229 0 0 0 250 250 0 0 0 0
2.6830819 0 0 0 250 250 0 0 0 0
2.7091343 0 0 0 250 250 0 0 0 0
2.8491507 0 0 0 250 250 0 0 0 0
2.989053 0 0 0 250 250 0 0 0 0
3.0574641 0 0 0 250 250 0 0 0 0
3.2125356 0 0 0 250 250 0 0 0 0
3.2967298 0 0 0 250 250 0 0 0 0
3.3381751 0 0 0 250 250 0 0 0 0
3.4797542 0 0 0 250 250 0 0 0 0
3.6028881 0 0 0 250 250 0 0 0 0
3.6590323 0 0 0 250 250 0 0 0 0
3.7908454 0 0 0 250 250 0 0 0 0
3.8668747 0 0 0 250 250 0 0 0 0
3.9997344 0 0 0 250 250 0 0 0 0
4.0365648 0 0 0 250 250 0 0 0 0
4.1952591 0 0 0 250 250 0 0 0 0
4.2622161 0 0 0 250 250 0 0 0 0
4.3992062 0 0 0 250 250 0 0 0 0
4.4868383 0 0 0 250 250 0 0 0 0
4.5559545 0 0 0 250 250 0 0 0 0
4.5827608 0 0 0 250 250 0 0 0 0
4.788506 0 0 0 250 250 0 0 0 0
4.8852124 0 0 0 250 250 0 0 0 0
5.0649657 0 0 0 250 250 0 0 0 0
5.0896931 0 0 0 250 250 0 0 0 0
5.1923575 0 0 0 250 250 0 0 0 0
5.2911963 0 0 0 250 250 0 0 0 0
5.4260316 0 0 0 250 250 0 0 0 0
5.4847822 0 0 0 250 250 0 0 0 0
5.5634999 0 0 0 250 250 0 0 0 0
5.7181139 0 0 0 250 250 0 0 0 0
5.7985625 0 0 0 250 250 0 0 0 0
5.9246044 0 0 0 250 250 0 0 0 0
6.0021834 0 0 0 250 250 0 0 0 0
6.1259556 0 0 0 250 250 0 0 0 0
6.1820211 0 0 0 250 250 0 0 0 0
6.2852554 0 0 0 250 250 0 0 0 0
6.3533678 0 0 0 250 250 0 0 0 0
6.4562397 0 0 0 250 250 0 0 0 0
6.5210061 0 0 0 250 250 0 0 0 0
6.640841 0 0 0 250 250 0 0 0 0
6.6364193 0 0 0 250 250 0 0 0 0
6.8199058 0 0 0 250 250 0 0 0 0
6.8945603 0 0 0 250 250 0 0 0 0
7.0029459 0 0 0 250 250 0 0 0 0
7.0653753 0 0 0 250 250 0 0 0 0
7.1404691 0 0 0 250 250 0 0 0 0
7.2238421 0 0 0 250 250 0 0 0 0
7.3310885 0 0 0 250 250 0 0 0 0
7.4006248 0 0 0 250 250 0 0 0 0
7.4922185 0 0 0 250 250 0 0 0 0
7.5513382 0 0 0 250 250 0 0 0 0
7.6084185 0 0 0 250 250 0 0 0 0
7.6613712 0 0 0 250 250 0 0 0 0
7.7074718 0 0 0 250 250 0 0 0 0
7.7308478 0 0 0 250 250 0 0 0 0
7.7829466 0 0 0 250 250 0 0 0 0
7.8182902 0 0 0 250 250 0 0 0 0
7.8621707 0 0 0 250 250 0 0 0 0
7.8741617 0 0 0 250 250 0 0 0 0
0 0 0 1 0 0 0 1 0 0 0 1 0 0 0 0 0 100 1 0 0
