ply
format ascii 1.0
comment PCL generated
element vertex 100
property float x
property float y
property float z
property uchar red
property uchar green
property uchar blue
property float nx
property float ny
property float nz
property float curvature
element camera 1
property float view_px
property float view_py
property float view_pz
property float x_axisx
property float x_axisy
property float x_axisz
property float y_axisx
property float y_axisy
property float y_axisz
property float z_axisx
property float z_axisy
property float z_axisz
property float focal
property float scalex
property float scaley
property float centerx
property float centery
property int viewportx
property int viewporty
property float k1
property float k2
end_header
245.2422 184.99504 0.52999997 250 250 250 3.8485956 -3.7449877 23.103243 0
245.2422 184.99504 0.54000002 250 250 250 3.8428609 -3.798424 22.973167 0
247.4558 185.95848 0.54000002 250 250 250 4.021955 -3.5301812 22.942364 0
247.4558 185.95848 0.55000001 250 250 250 4.0264316 -3.4248736 23.311193 0
249.65906 186.94406 0.55000001 250 250 250 4.0396976 -2.9737356 23.416414 0
249.65906 186.94406 0.56 250 250 250 3.9607768 -2.5209968 23.519173 0
251.8623 187.94072 0.56 250 250 250 3.9205739 -2.4332266 23.818329 0
251.8623 187.94072 0.56 250 250 250 3.6883633 -2.4449089 24.110327 0
254.06557 188.95952 0.56999999 250 250 250 3.5511205 -2.3195601 24.459396 0
254.06557 188.95952 0.56999999 250 250 250 3.5292203 -2.4306006 24.441584 0
256.27917 189.9451 0.57999998 250 250 250 3.7751229 -2.3266973 24.205048 0
256.27917 189.9451 0.57999998 250 250 250 4.0315123 -1.9272345 23.544718 0
258.49277 190.91962 0.57999998 250 250 250 3.6796966 -2.2765689 23.291359 0
258.49277 190.91962 0.57999998 250 250 250 3.6385806 -1.6245749 23.059364 0
260.70636 191.88304 0.57999998 250 250 250 3.8076761 -1.2947358 23.144209 0
260.70636 191.88304 0.57999998 250 250 250 3.7916381 -1.0535116 23.382528 0
262.89926 192.90186 0.58999997 250 250 250 4.1421127 -1.5226722 23.973913 0
262.89926 192.90186 0.58999997 250 250 250 4.6688123 -1.7949603 25.120716 0
265.06116 193.98711 0.60000002 250 250 250 4.997086 -1.0117798 25.965002 0
265.06116 193.98711 0.61000001 250 250 250 4.9684739 -1.7730843 27.197708 0
267.17133 195.17201 0.61000001 250 250 250 4.9508924 -1.5886903 28.805439 0
267.17133 195.17201 0.61000001 250 250 250 3.836067 -1.6383284 28.950588 0
269.27115 196.37909 0.61000001 250 250 250 4.0467277 -1.1849523 29.281496 0
269.27115 196.37909 0.61000001 250 250 250 3.5577676 -1.3588368 29.190149 0
271.38132 197.55293 0.61000001 250 250 250 3.7249177 -1.4167509 28.888474 0
271.38132 197.55293 0.62 250 250 250 4.0325274 -0.8350234 28.27795 0
273.52252 198.6714 0.63 250 250 250 5.0643735 -1.8145888 27.575958 0
273.52252 198.6714 0.63 250 250 250 4.6681609 -1.659084 26.620455 0
275.65335 199.77881 0.62 250 250 250 4.9433331 -2.3338387 26.407709 0
275.65335 199.77881 0.62 250 250 250 5.0925865 -3.0384364 26.942451 0
277.78421 200.90834 0.62 250 250 250 4.8707819 -3.6209261 27.146544 0
277.78421 200.90836 0.63999999 250 250 250 5.0005431 -2.3490975 27.95075 0
279.89438 202.11542 0.64999998 250 250 250 4.2830238 -2.9317379 28.62862 0
279.89438 202.11542 0.64999998 250 250 250 3.5733881 -3.0000901 29.088442 0
281.97351 203.30034 0.64999998 250 250 250 2.980737 -3.3148699 29.155691 0
281.97351 203.30034 0.63999999 250 250 250 2.9051914 -4.5842705 29.215183 0
284.09402 204.45203 0.63999999 250 250 250 2.8744047 -5.6691742 28.46854 0
284.09402 204.45203 0.64999998 250 250 250 3.5337417 -5.775692 27.384699 0
286.21454 205.58157 0.66000003 250 250 250 3.5421956 -5.1041951 27.596243 0
286.21454 205.58157 0.66000003 250 250 250 3.8865066 -4.2905011 27.170025 0
288.33505 206.75542 0.63999999 250 250 250 4.1238542 -4.8932147 27.962696 0
288.33505 206.75542 0.63999999 250 250 250 4.3439279 -5.7339573 28.400642 0
290.43488 207.91818 0.63999999 250 250 250 4.1337304 -6.7244954 28.065128 0
290.43488 207.91818 0.63999999 250 250 250 4.5288835 -6.2726526 28.220051 0
292.5347 209.1031 0.63999999 250 250 250 5.0961213 -5.3113728 28.624371 0
292.5347 209.1031 0.63 250 250 250 4.3343329 -4.5312123 29.040569 0
294.63452 210.33231 0.60000002 250 250 250 3.6466811 -3.2440434 29.514359 0
294.63452 210.33231 0.58999997 250 250 250 3.4844878 -3.2198741 28.879034 0
296.75504 211.47293 0.60000002 250 250 250 3.0257137 -4.9560833 28.241505 0
296.75504 211.47293 0.61000001 250 250 250 4.5177655 -5.5138693 27.646349 0
298.88589 212.62462 0.62 250 250 250 4.6964231 -4.5247946 27.119995 0
298.88589 212.62462 0.62 250 250 250 3.6288137 -3.4286537 26.97921 0
301.01675 213.78738 0.62 250 250 250 3.4641182 -3.7831521 27.354919 0
301.01675 213.78738 0.61000001 250 250 250 3.8177125 -4.461041 27.323137 0
303.12692 214.96123 0.62 250 250 250 4.0795755 -5.6786165 27.640961 0
303.12692 214.96123 0.63999999 250 250 250 3.8357906 -5.8727713 27.715826 0
305.23709 216.13507 0.64999998 250 250 250 3.9491215 -4.3626051 27.897223 0
305.23709 216.13507 0.64999998 250 250 250 3.0576971 -4.2063184 27.802917 0
307.34726 217.30891 0.63999999 250 250 250 3.1359746 -4.8340244 27.860954 0
307.34726 217.30891 0.64999998 250 250 250 3.1371686 -5.9313397 27.849104 0
309.49881 218.40523 0.64999998 250 250 250 2.9579999 -6.9906559 26.065756 0
309.49881 218.40523 0.64999998 250 250 250 3.6246176 -6.6321139 26.308294 0
311.67105 219.4794 0.64999998 250 250 250 3.5246806 -4.3344378 25.390141 0
311.67105 219.4794 0.63 250 250 250 3.4647489 -4.9164281 25.794268 0
313.8226 220.58679 0.63 250 250 250 3.6227498 -6.5434957 25.663874 0
313.8226 220.58679 0.63 250 250 250 3.6253877 -8.728631 26.810894 0
315.94312 221.73848 0.63999999 250 250 250 3.692554 -8.1091595 27.002638 0
315.94312 221.73848 0.63 250 250 250 2.7284946 -6.5175295 27.980831 0
318.04294 222.94554 0.61000001 250 250 250 2.5872378 -6.3258824 28.506496 0
318.04294 222.94554 0.58999997 250 250 250 2.7485607 -6.7827511 28.616434 0
320.15311 224.10831 0.58999997 250 250 250 3.3785434 -7.0455494 28.081329 0
320.15311 224.10831 0.58999997 250 250 250 4.6111803 -5.9553256 27.254419 0
322.28397 225.25999 0.58999997 250 250 250 4.9367576 -5.2289844 27.031544 0
322.28397 225.25999 0.57999998 250 250 250 5.1251631 -4.690104 26.406055 0
324.40448 226.42276 0.56 250 250 250 5.3217487 -5.1038647 26.99106 0
324.40448 226.42276 0.55000001 250 250 250 5.1579146 -5.5694146 27.450657 0
326.49396 227.62982 0.55000001 250 250 250 5.0013804 -6.4256344 28.485527 0
326.49396 227.62982 0.55000001 250 250 250 5.2828364 -5.7454495 29.086796 0
328.52139 228.94762 0.55000001 250 250 250 5.1099048 -4.2832775 30.78034 0
328.52139 228.94762 0.52999997 250 250 250 4.1301165 -3.9052022 31.628466 0
330.55917 230.26543 0.50999999 250 250 250 4.0897527 -2.7807605 31.345825 0
330.55917 230.26543 0.47999999 250 250 250 3.6730142 -3.8256841 30.92355 0
332.61761 231.52785 0.47 250 250 250 3.9198875 -6.093554 30.00316 0
332.61761 231.52785 0.47 250 250 250 5.6221681 -5.6149912 30.419754 0
334.69675 232.76814 0.47999999 250 250 250 4.9038367 -5.3881826 29.592674 0
334.69675 232.76814 0.47 250 250 250 4.5728731 -4.7876692 28.378874 0
336.73453 234.03056 0.46000001 250 250 250 5.0071759 -6.0265603 29.421263 0
336.73453 234.03056 0.46000001 250 250 250 5.2083578 -7.3509474 31.30654 0
338.64819 235.50342 0.46000001 250 250 250 4.2769933 -9.6583652 34.970165 0
338.64819 235.50342 0.47 250 250 250 7.3839569 -6.3115525 35.821327 0
340.48941 237.06487 0.46000001 250 250 250 5.4678321 -6.1164012 38.476624 0
340.48941 237.06487 0.44999999 250 250 250 4.9452796 -5.5757842 38.558617 0
342.341 238.6263 0.44999999 250 250 250 4.8661885 -4.0565734 38.426785 0
342.341 238.6263 0.46000001 250 250 250 4.1537228 -3.9454827 37.991848 0
344.13052 240.22096 0.46000001 250 250 250 5.1523662 -4.1122317 39.369183 0
344.13052 240.22096 0.47 250 250 250 4.8961782 -3.6050277 40.392387 0
345.77524 241.99283 0.46000001 250 250 250 4.4130869 -3.2906785 43.366817 0
345.77524 241.99283 0.46000001 250 250 250 3.3926165 -3.9503565 48.152679 0
347.12 243.99725 0.46000001 250 250 250 3.2742438 -3.7322924 52.633305 0
347.12 243.99725 0.46000001 250 250 250 2.7018001 -3.555788 57.222836 0
0 0 0 1 0 0 0 1 0 0 0 1 0 0 0 0 0 100 1 0 0
