ply
format ascii 1.0
comment PCL generated
element vertex 500
property float x
property float y
property float z
property uchar red
property uchar green
property uchar blue
property float nx
property float ny
property float nz
property float curvature
element camera 1
property float view_px
property float view_py
property float view_pz
property float x_axisx
property float x_axisy
property float x_axisz
property float y_axisx
property float y_axisy
property float y_axisz
property float z_axisx
property float z_axisy
property float z_axisz
property float focal
property float scalex
property float scaley
property float centerx
property float centery
property int viewportx
property int viewporty
property float k1
property float k2
end_header
1.4155904 -1.6446377 -0.15973164 250 0 0 0.098283827 -10.946381 127.95231 0
1.4100646 -1.6275747 -0.15697685 250 0 0 0.4870179 -10.937306 128.38567 0
1.3957279 -1.596285 -0.15523656 250 0 0 1.2371175 -10.639346 128.9845 0
1.3883052 -1.5809928 -0.15510996 250 0 0 1.6315479 -10.547978 129.64276 0
1.3769543 -1.5451914 -0.15736447 250 0 0 1.8609728 -10.205207 130.48949 0
1.3464199 -1.4778725 -0.13465174 250 0 0 1.7876567 -10.308425 132.41718 0
1.3360353 -1.4532694 -0.12526013 250 0 0 1.8326551 -10.711957 132.85471 0
1.3206702 -1.4084598 -0.11225974 250 0 0 2.8250666 -12.154391 133.40681 0
1.2942246 -1.35262 -0.10797491 250 0 0 3.4489863 -12.937643 132.95929 0
1.2497103 -1.2814542 -0.11941244 250 0 0 3.7380438 -11.546287 131.52298 0
1.2275381 -1.2499727 -0.1193047 250 0 0 3.6246727 -11.129567 130.84518 0
1.1760542 -1.1846461 -0.11354517 250 0 0 2.5513475 -11.647981 129.9496 0
1.0831745 -1.0964066 -0.0698888 250 0 0 2.7191887 -11.980097 127.61028 0
1.0672208 -1.0681109 -0.074327342 250 0 0 2.2766786 -12.843924 127.11875 0
1.0118184 -1.0331738 -0.077583186 250 0 0 2.2902608 -11.089534 127.05122 0
0.92938125 -0.92831457 -0.08421535 250 0 0 2.300792 -8.7383385 128.63054 0
0.83619577 -0.78909057 -0.074153438 250 0 0 1.3563823 -10.651855 131.09673 0
0.78902543 -0.75830555 -0.065562129 250 0 0 0.99734575 -10.09796 131.65491 0
0.73694712 -0.67373365 -0.040167574 250 0 0 0.38078144 -11.313068 134.22665 0
0.63696438 -0.57806951 -0.027587874 250 0 0 2.6935 -10.687365 136.6019 0
0.60999298 -0.52410489 -0.034934726 250 0 0 2.2963817 -10.364248 136.91428 0
0.52274042 -0.44872138 -0.017703122 250 0 0 1.2902596 -10.722019 136.06242 0
0.40300539 -0.33186546 0.022399709 250 0 0 0.88901299 -10.527909 134.08011 0
0.36810976 -0.30695277 0.017065931 250 0 0 0.91679996 -11.728007 133.40933 0
0.29395166 -0.2343325 0.0048428732 250 0 0 2.0915854 -9.8892155 133.11366 0
0.17236951 -0.10937747 0.0027751804 250 0 0 2.3836701 -9.8018503 135.17197 0
0.043375839 0.029132454 0.043206643 250 0 0 1.9722725 -8.90938 136.6348 0
0.013295141 0.091913365 0.059132386 250 0 0 0.97623938 -10.211664 137.93677 0
-0.053639993 0.14663768 0.066203393 250 0 0 2.4795167 -10.482166 137.91125 0
-0.15950604 0.29531255 0.047844928 250 0 0 3.280503 -10.703922 137.48207 0
-0.21332839 0.33503285 0.0697423 250 0 0 3.3220618 -10.457592 136.58081 0
-0.28715974 0.44766629 0.067812629 250 0 0 1.5958248 -12.344827 135.07535 0
-0.41723999 0.54002953 0.096449368 250 0 0 3.1465642 -12.900085 131.5598 0
-0.55507451 0.65153962 0.09485627 250 0 0 4.7492447 -10.919815 133.15594 0
-0.58622789 0.72540319 0.098881423 250 0 0 3.9796634 -11.884634 133.91263 0
-0.66202015 0.81736952 0.060627665 250 0 0 2.4373686 -11.598455 133.66846 0
-0.79603738 1.0035561 0.11326834 250 0 0 0.90899771 -11.292728 135.97192 0
-0.86014915 1.0016292 0.12684274 250 0 0 1.9932934 -10.811106 135.55537 0
-0.92024088 1.1458964 0.1404646 250 0 0 4.0240135 -11.961473 136.86325 0
-1.0588794 1.2785642 0.12672503 250 0 0 2.3178821 -11.478635 135.96213 0
-1.0842907 1.3318681 0.12954658 250 0 0 0.50224924 -12.218066 135.0423 0
-1.1688766 1.3891461 0.16344222 250 0 0 1.8685193 -12.17781 131.99471 0
-1.2848183 1.5015471 0.13429545 250 0 0 2.6110346 -11.151931 130.19736 0
-1.444231 1.6276592 0.14788374 250 0 0 2.1563101 -11.563444 131.34409 0
-1.4779238 1.6858546 0.13967936 250 0 0 1.5452055 -11.010959 131.78781 0
-1.5894641 1.7782743 0.18604776 250 0 0 0.76316905 -10.500792 133.90359 0
-1.7137994 1.9112735 0.23936772 250 0 0 1.0195382 -11.264482 135.86452 0
-1.7487433 1.9714812 0.24878228 250 0 0 1.3079809 -12.357863 136.63499 0
-1.8209546 2.0752172 0.22986306 250 0 0 1.5307268 -13.169371 135.44829 0
-1.9550078 2.1843917 0.22676946 250 0 0 -0.24290261 -12.417892 131.97554 0
-2.0063069 2.2214537 0.25233868 250 0 0 0.54745001 -11.945093 131.1955 0
-2.0910227 2.2798443 0.23953535 250 0 0 1.9697845 -11.57359 130.22777 0
-2.2387419 2.3949909 0.2584714 250 0 0 2.6732018 -11.116571 132.85252 0
-2.3630416 2.5182674 0.25921711 250 0 0 1.833885 -10.895061 135.06313 0
-2.4230623 2.557523 0.28551084 250 0 0 2.1125524 -10.756988 137.01645 0
-2.4704268 2.6723628 0.29265431 250 0 0 0.22775652 -11.312655 139.60294 0
-2.6066527 2.7926846 0.30928558 250 0 0 1.682687 -11.163882 139.74315 0
-2.6463549 2.8421357 0.29675475 250 0 0 1.2263058 -11.511168 139.26431 0
-2.7347355 2.9187169 0.27985659 250 0 0 -0.012234599 -10.17521 136.39122 0
-2.8694215 3.0288146 0.32526755 250 0 0 1.4705337 -9.9670801 133.48596 0
-3.0229735 3.1548364 0.33727533 250 0 0 3.315459 -9.3443012 133.07642 0
-3.0752649 3.2054923 0.33789459 250 0 0 2.5959926 -9.6094599 134.2916 0
-3.1585824 3.3304615 0.32513788 250 0 0 0.4434019 -11.543218 135.97345 0
-3.2949533 3.4236372 0.33708155 250 0 0 -2.8495374 -11.941347 138.09389 0
-3.3412287 3.4528222 0.34468603 250 0 0 -2.1683486 -11.502752 137.81172 0
-3.4392428 3.5494378 0.37109336 250 0 0 -0.73972404 -12.076194 138.72377 0
-3.5492663 3.6977427 0.33716935 250 0 0 -0.43847916 -12.595072 135.79031 0
-3.6923311 3.753052 0.35437211 250 0 0 0.76452911 -10.819125 130.1687 0
-3.7565725 3.7882698 0.37377581 250 0 0 2.746237 -9.8880911 130.22481 0
-3.8431859 3.8757582 0.34759659 250 0 0 3.0847497 -10.390536 131.55405 0
-4.0115471 4.0077291 0.3430011 250 0 0 2.2323718 -11.647284 137.29073 0
-4.0646296 4.0384192 0.36810666 250 0 0 2.3895633 -11.871137 139.19887 0
-4.1330771 4.1334391 0.34111619 250 0 0 -0.28509316 -11.583093 138.90242 0
-4.2627821 4.2510953 0.36148888 250 0 0 0.5848906 -12.119238 139.27141 0
-4.3042736 4.2901897 0.33717608 250 0 0 0.74225885 -12.013167 138.1826 0
-4.3909788 4.4050508 0.34135911 250 0 0 0.23580861 -12.049326 136.2704 0
-4.5309701 4.453536 0.37267113 250 0 0 1.0837541 -10.580255 132.48476 0
-4.6606178 4.5537477 0.36124057 250 0 0 2.1392975 -11.125669 136.39439 0
-4.7120075 4.6199865 0.37263167 250 0 0 1.9010242 -11.514318 138.32431 0
-4.797678 4.7197247 0.3655099 250 0 0 1.0851699 -13.030261 140.50436 0
-4.9237876 4.8460073 0.38249919 250 0 0 -0.86536324 -13.536341 139.99731 0
-4.9337149 4.885479 0.38971502 250 0 0 0.54898965 -12.276345 139.68675 0
-5.0359507 5.0233712 0.39031211 250 0 0 0.86333853 -13.636074 139.18149 0
-5.1694326 5.1509924 0.38516665 250 0 0 0.33755976 -12.969421 136.50536 0
-5.2834091 5.2042351 0.4069404 250 0 0 0.91618931 -12.431943 134.12779 0
-5.3339643 5.2447519 0.42160794 250 0 0 2.3004963 -11.934304 134.46422 0
-5.4025021 5.306139 0.40463904 250 0 0 2.1873598 -11.316089 136.35252 0
-5.5522614 5.4040995 0.40043515 250 0 0 1.3638148 -13.222082 144.94461 0
-5.6030121 5.4532328 0.41087088 250 0 0 -0.65365404 -12.151843 147.65051 0
-5.7011256 5.5504551 0.42232701 250 0 0 -2.5401647 -12.088027 152.82262 0
-5.8835063 5.6434503 0.43709779 250 0 0 -2.7938497 -10.899395 157.27759 0
-5.9276628 5.6666679 0.42497373 250 0 0 -3.2012069 -11.837335 158.42064 0
-6.0388861 5.7152681 0.41927725 250 0 0 -3.2330132 -11.91152 160.31248 0
-6.1995754 5.812243 0.42663482 250 0 0 -4.9739361 -12.845986 162.92035 0
-6.3692307 5.8449779 0.43813291 250 0 0 -1.3286624 -11.0004 164.15848 0
-6.4129963 5.8375292 0.42086184 250 0 0 -1.5436956 -10.550223 165.78958 0
-6.5865378 5.8619452 0.43238223 250 0 0 -1.6388339 -10.728755 172.22679 0
-6.7599759 5.8943715 0.41857016 250 0 0 -3.2110529 -9.5375957 -179.67793 0
-6.8443332 5.9018364 0.42552906 250 0 0 -4.932879 -10.08151 -178.25011 0
-6.9503098 5.8889565 0.42504996 250 0 0 -3.1044812 -8.5284233 -174.46243 0
-7.1514068 5.9218898 0.39893475 250 0 0 -2.651181 -9.1087475 -173.46664 0
-7.3417306 5.9386349 0.3905251 250 0 0 -4.76057 -9.8873148 -172.8161 0
-7.3820515 5.8982778 0.39532137 250 0 0 -4.0559359 -8.3274632 -173.4133 0
-7.5177803 5.8955703 0.40193757 250 0 0 -2.0316567 -7.8118205 -170.34132 0
-7.7234173 5.8174744 0.38522014 250 0 0 -1.9069684 -8.3718309 -161.95558 0
-7.7864475 5.8190761 0.36380956 250 0 0 -3.4272554 -7.7658219 -158.91287 0
-7.936204 5.8037372 0.37816215 250 0 0 -5.0219197 -6.0273852 -154.2984 0
-8.1255846 5.7340579 0.39277947 250 0 0 -3.4073296 -5.1525478 -149.53403 0
-8.1615582 5.7080898 0.3731567 250 0 0 -3.9899378 -6.4905901 -149.1142 0
-8.2590942 5.65874 0.36274672 250 0 0 -3.137078 -5.9779744 -149.95622 0
-8.2769098 5.5544105 0.35876271 250 0 0 -4.464355 -6.1562686 -151.4933 0
-8.4688425 5.4713626 0.37847808 250 0 0 -1.6328155 -6.4507222 -149.4099 0
-8.5280342 5.4296756 0.36739212 250 0 0 -2.0366595 -7.4898267 -147.92363 0
-8.6498756 5.3505268 0.35243124 250 0 0 -3.8041015 -9.7732029 -145.14349 0
-8.7373571 5.2348185 0.35147533 250 0 0 -4.604075 -7.4514933 -141.87773 0
-8.7854815 5.2026467 0.35793641 250 0 0 -3.1321492 -5.1643834 -140.2092 0
-8.9119883 5.1343722 0.36094156 250 0 0 -2.5571458 -7.3012424 -138.71851 0
-9.0727377 5.0262017 0.37371063 250 0 0 -3.8083179 -3.6922123 -141.98853 0
-9.1207409 4.9901495 0.39899832 250 0 0 -3.7548504 -4.3203979 -142.87773 0
-9.1721878 4.9151115 0.39825585 250 0 0 -2.9164591 -2.5770814 -144.64847 0
-9.2803211 4.8021445 0.40123168 250 0 0 -1.5821335 -3.1808074 -142.51994 0
-9.3992033 4.6840177 0.41336009 250 0 0 -2.9806373 -5.502656 -138.5018 0
-9.4375257 4.652091 0.41838419 250 0 0 -2.2727301 -5.3857045 -136.7733 0
-9.5041609 4.5931702 0.41920298 250 0 0 -4.2373533 -5.462687 -137.53754 0
-9.648922 4.516046 0.42365268 250 0 0 -3.6104 -5.0101109 -137.37532 0
-9.6635809 4.4576311 0.39629376 250 0 0 -3.7199349 -5.3447099 -138.30879 0
-9.7669754 4.367507 0.39565021 250 0 0 -2.9612899 -7.1341467 -138.58679 0
-9.883707 4.2423339 0.35616791 250 0 0 -3.1092148 -6.8411403 -141.02353 0
-10.001959 4.0997758 0.34787765 250 0 0 -1.632691 -6.4808297 -138.95728 0
-10.066783 4.0629525 0.34456456 250 0 0 -1.6101788 -6.7058673 -138.23773 0
-10.160417 3.9692824 0.3421919 250 0 0 -1.6384964 -6.4341631 -136.16972 0
-10.309286 3.8646724 0.34985194 250 0 0 -2.6779273 -5.5730906 -136.94585 0
-10.342254 3.8179595 0.35422486 250 0 0 -1.3649548 -4.3168974 -136.51247 0
-10.43902 3.7537413 0.3514874 250 0 0 -2.0426807 -5.289609 -135.49857 0
-10.561 3.624913 0.33313921 250 0 0 -2.330919 -4.5999322 -137.27681 0
-10.589531 3.5812387 0.32796696 250 0 0 -3.1767142 -4.1371846 -138.16473 0
-10.663061 3.4931459 0.34284073 250 0 0 -2.8146636 -3.2302303 -140.16016 0
-10.767296 3.3580947 0.34581095 250 0 0 -0.80717939 -3.2215087 -139.82602 0
-10.884362 3.2106488 0.32844889 250 0 0 -0.23921284 -5.1788001 -135.27859 0
-10.944206 3.1538122 0.34669155 250 0 0 -0.8619445 -5.3735437 -132.99548 0
-11.050841 3.070672 0.33312324 250 0 0 -2.544899 -6.2880878 -131.34212 0
-11.180287 2.9385862 0.3449527 250 0 0 -1.2872823 -5.4268556 -131.11499 0
-11.221825 2.9022303 0.32103768 250 0 0 -1.2933626 -6.0088353 -131.39572 0
-11.302094 2.8072455 0.31275377 250 0 0 -0.69758642 -5.6271362 -131.81866 0
-11.421464 2.6540036 0.32613763 250 0 0 -2.0516493 -5.8495617 -131.8123 0
-11.50258 2.4958608 0.32020521 250 0 0 -0.31237096 -6.0711446 -130.39896 0
-11.519878 2.4368804 0.30389392 250 0 0 -0.53869617 -5.421268 -129.37015 0
-11.578443 2.3069837 0.30377883 250 0 0 -0.95489359 -5.6245775 -123.89639 0
-11.648574 2.1155567 0.27958125 250 0 0 -2.3875914 -4.947237 -115.58442 0
-11.699823 2.064151 0.2860814 250 0 0 -2.9406273 -4.7233763 -112.38635 0
-11.71707 1.9408246 0.28856251 250 0 0 -1.6950396 -3.7166729 -108.75644 0
-11.791564 1.7487072 0.27476546 250 0 0 -2.263221 -6.6250935 -104.5369 0
-11.831243 1.5590575 0.26732072 250 0 0 -3.9140644 -6.6562614 -103.91489 0
-11.845792 1.5052618 0.26160023 250 0 0 -3.5361917 -6.1035118 -104.73228 0
-11.837761 1.3786761 0.28046259 250 0 0 -1.5621806 -5.3407497 -104.13116 0
-11.843747 1.1961576 0.23868619 250 0 0 -0.65210706 -5.7086105 -99.630997 0
-11.84031 1.1363461 0.22266278 250 0 0 0.027400879 -5.3299041 -97.059967 0
-11.833442 1.0058807 0.227386 250 0 0 0.06691847 -3.3370533 -92.054146 0
-11.835122 0.81746399 0.24169165 250 0 0 0.0040158583 -3.2533896 -84.559593 0
-11.833988 0.62410975 0.22358428 250 0 0 0.66905421 -3.9951499 -81.417633 0
-11.831612 0.55849922 0.20706813 250 0 0 0.51717746 -3.7678249 -81.576149 0
-11.815455 0.42406926 0.20467006 250 0 0 -2.482753 -3.6075752 -81.484985 0
-11.801397 0.2315542 0.22278392 250 0 0 -1.8115799 -3.4309096 -83.339867 0
-11.785398 0.17366664 0.21459444 250 0 0 -0.75276953 -3.289474 -83.516418 0
-11.761064 0.049219146 0.19873142 250 0 0 1.4389926 -2.8239069 -81.661201 0
-11.744134 -0.15346405 0.16125068 250 0 0 0.80011684 -2.7578244 -77.022041 0
-11.732427 -0.22410139 0.17089152 250 0 0 1.1977174 -2.1160398 -75.138458 0
-11.750135 -0.36029035 0.17809838 250 0 0 -0.8108927 -2.8770249 -72.296524 0
-11.720005 -0.54248673 0.1850336 250 0 0 1.5211172 -3.5659037 -71.036613 0
-11.688471 -0.72560173 0.14732799 250 0 0 -0.014512196 -3.1254241 -73.854279 0
-11.661633 -0.78399467 0.15283868 250 0 0 -1.5153195 -3.993423 -74.367111 0
-11.680958 -0.90630692 0.1378721 250 0 0 -2.6078005 -4.6943603 -77.062477 0
-11.59446 -1.0722579 0.15310574 250 0 0 -1.0522481 -3.8581479 -78.61705 0
-11.574317 -1.1285331 0.14337586 250 0 0 -0.71737134 -4.3819847 -77.614037 0
-11.562215 -1.2522135 0.12145397 250 0 0 0.55751926 -4.9087129 -77.040764 0
-11.53822 -1.4388129 0.11972055 250 0 0 0.87826008 -2.9707792 -74.65284 0
-11.533074 -1.4947569 0.12060378 250 0 0 -0.28480065 -2.3580005 -76.272499 0
-11.504864 -1.6210493 0.14533633 250 0 0 1.3308663 -1.4045906 -77.833427 0
-11.498528 -1.8262308 0.10357859 250 0 0 -0.7056424 -3.5739605 -81.016357 0
-11.463193 -2.0261958 0.12812723 250 0 0 -4.2360787 -1.7456657 -85.774933 0
-11.467293 -2.0934241 0.16908315 250 0 0 -4.6865735 -2.4301856 -87.490372 0
-11.452938 -2.196727 0.16616036 250 0 0 -3.7597048 -1.8414137 -90.846596 0
-11.43635 -2.379786 0.15773898 250 0 0 -0.15463267 -2.1527615 -91.229324 0
-11.461688 -2.452085 0.15343688 250 0 0 0.11946744 -2.5972352 -90.775116 0
-11.464713 -2.5881624 0.14584436 250 0 0 -1.7301629 -3.6967013 -91.171646 0
-11.478205 -2.7757535 0.16467485 250 0 0 -3.1711307 -4.2108378 -89.694466 0
-11.468667 -2.9691398 0.14537209 250 0 0 -1.5798883 -4.0705886 -88.56884 0
-11.476257 -3.0377681 0.13195537 250 0 0 -1.9418917 -4.2071404 -89.892113 0
-11.469932 -3.1747818 0.12552394 250 0 0 -3.0252137 -5.9995694 -93.459862 0
-11.433167 -3.3663476 0.12118882 250 0 0 -1.3208065 -3.970048 -99.357185 0
-11.442394 -3.43051 0.1213368 250 0 0 -0.43875363 -3.3530433 -99.745941 0
-11.416373 -3.5615137 0.085415184 250 0 0 -0.74243444 -2.7312021 -99.425926 0
-11.409683 -3.7871435 0.06716872 250 0 0 -2.1134553 -3.7134943 -96.453506 0
-11.378856 -3.8549767 0.071831733 250 0 0 -1.0030652 -2.7840602 -93.905716 0
-11.392245 -3.991426 0.081313416 250 0 0 -1.4023222 -2.8584948 -89.347008 0
-11.388259 -4.1999741 0.068821818 250 0 0 1.6076918 -2.3395572 -87.357872 0
-11.362284 -4.4033561 0.019888796 250 0 0 -1.904767 -2.1491535 -91.734856 0
-11.369664 -4.4756465 0.034597307 250 0 0 -2.0141883 -1.3509156 -92.578957 0
-11.336008 -4.5989165 0.041421793 250 0 0 -1.2297816 -1.3740046 -96.211044 0
-11.30492 -4.791151 -0.0012885809 250 0 0 0.21576595 -1.3051401 -95.672478 0
-11.296151 -4.8683333 -0.0011189268 250 0 0 -0.30670083 -1.3640347 -94.59169 0
-11.275147 -5.0151062 -0.010972414 250 0 0 -0.94134945 -2.0504975 -92.753464 0
-11.256596 -5.2190394 0.0051452895 250 0 0 -1.5708262 -3.5166953 -87.924911 0
-11.248276 -5.4175429 -0.015503676 250 0 0 -0.58777589 -2.8287892 -87.096657 0
-11.242485 -5.4810767 -0.043221921 250 0 0 -0.75915259 -2.7151065 -87.4077 0
-11.239723 -5.6122856 -0.072484367 250 0 0 -3.4628024 -2.0331106 -90.392113 0
-11.230707 -5.8028316 -0.074553676 250 0 0 -3.4496818 -0.4686543 -97.110352 0
-11.220343 -5.8662195 -0.077152625 250 0 0 -2.0461457 -0.17797588 -98.153084 0
-11.210807 -5.9915891 -0.12504417 250 0 0 -1.9116712 1.03342 -99.433067 0
-11.192962 -6.2234879 -0.13828403 250 0 0 -2.891916 0.030618744 -95.892059 0
-11.204867 -6.426909 -0.11374725 250 0 0 -1.809008 -0.91025543 -91.689301 0
-11.188334 -6.480763 -0.12179531 250 0 0 -0.32839319 -0.72097617 -91.261436 0
-11.20963 -6.6113358 -0.12684315 250 0 0 0.12782429 -0.97022027 -89.91803 0
-11.22609 -6.8122072 -0.18661503 250 0 0 -3.4775882 -1.7217542 -93.052666 0
-11.18459 -6.8878016 -0.18459308 250 0 0 -3.9188998 -1.9171374 -95.091003 0
-11.218331 -7.0198116 -0.17838776 250 0 0 -3.7931399 -2.6367586 -99.643951 0
-11.206454 -7.2153554 -0.18746279 250 0 0 0.023090417 -2.8071544 -100.40079 0
-11.196619 -7.2821617 -0.20872517 250 0 0 0.63663369 -2.7964656 -99.412186 0
-11.234413 -7.430614 -0.25674468 250 0 0 1.4315984 -3.1298752 -96.21405 0
-11.250971 -7.6521845 -0.22676368 250 0 0 -1.0118612 -2.6478481 -91.496986 0
-11.278605 -7.8259668 -0.23005863 250 0 0 1.3915583 -3.5382559 -88.783211 0
-11.297798 -7.8867369 -0.25768283 250 0 0 0.81807351 -3.5349965 -89.546463 0
-11.320793 -8.0218439 -0.27609617 250 0 0 -1.5083715 -1.3989189 -92.687408 0
-11.332458 -8.2146587 -0.25909802 250 0 0 -3.0040076 -2.7340112 -96.321465 0
-11.31756 -8.2712116 -0.25873208 250 0 0 -3.286772 -2.0061474 -97.699738 0
-11.317856 -8.3877535 -0.25639129 250 0 0 -1.2475865 -1.8873389 -97.26564 0
-11.344905 -8.5629711 -0.28695923 250 0 0 -0.94453233 -1.6437843 -94.484474 0
-11.385592 -8.620245 -0.30790851 250 0 0 -1.387025 -2.2824056 -93.18499 0
-11.411552 -8.7315416 -0.30420247 250 0 0 -1.5636281 -2.0487278 -91.448204 0
-11.47524 -8.8797836 -0.27859816 250 0 0 -1.5150303 -2.547024 -91.886597 0
-11.550606 -9.0161142 -0.31361511 250 0 0 -1.8287686 -2.2241306 -94.443199 0
-11.564087 -9.0706015 -0.31715387 250 0 0 -2.3567519 -1.6118176 -96.123856 0
-11.577831 -9.1793318 -0.33392823 250 0 0 -3.2622619 -1.3714411 -97.940514 0
-11.608707 -9.350421 -0.30284739 250 0 0 -3.7056334 -1.8533504 -102.56565 0
-11.614303 -9.3908701 -0.30558151 250 0 0 -2.1443558 -2.6690969 -102.38216 0
-11.618262 -9.4713879 -0.3311196 250 0 0 -1.4931877 -2.2295358 -102.57643 0
-11.633766 -9.6377697 -0.35101238 250 0 0 -0.87536317 -1.0000751 -98.674698 0
-11.648849 -9.8093815 -0.35300201 250 0 0 -0.99374473 -2.4055395 -93.800438 0
-11.684831 -9.8693352 -0.34788918 250 0 0 -0.93134391 -2.7778103 -91.60836 0
-11.695311 -9.9679527 -0.35189939 250 0 0 0.0530289 -3.1098919 -90.450104 0
-11.72801 -10.131765 -0.39689675 250 0 0 -0.74568486 -2.0288556 -90.257431 0
-11.734973 -10.198475 -0.40583682 250 0 0 -1.2720895 -1.8001728 -90.738853 0
-11.749291 -10.321648 -0.42696103 250 0 0 -4.7039056 -3.3014209 -93.221176 0
-11.741915 -10.498633 -0.41356337 250 0 0 -3.4174047 -2.9841866 -96.999847 0
-11.7396 -10.552868 -0.4181073 250 0 0 -2.3543465 -2.0660241 -97.284737 0
-11.75433 -10.674249 -0.44264349 250 0 0 -1.5225405 -2.1319866 -97.666023 0
-11.763337 -10.887315 -0.46906009 250 0 0 -1.6298492 -4.4598622 -94.920303 0
-11.831769 -11.098498 -0.45619631 250 0 0 -3.4813178 -6.6578732 -89.683456 0
-11.832119 -11.150098 -0.45295641 250 0 0 -3.3644364 -6.9665966 -90.377167 0
-11.839526 -11.27277 -0.45466831 250 0 0 -1.7681038 -6.8739114 -89.290306 0
-11.879758 -11.452311 -0.52171355 250 0 0 -3.2239072 -5.9125519 -91.760185 0
-11.87031 -11.521738 -0.52541417 250 0 0 -4.883955 -5.4073734 -93.080879 0
-11.897802 -11.661126 -0.50033021 250 0 0 -4.6125102 -6.0578685 -94.286308 0
-11.896366 -11.835902 -0.51172245 250 0 0 -1.5147157 -5.395741 -98.678932 0
-11.885494 -12.024738 -0.55908066 250 0 0 -1.3462619 -5.1244984 -96.851517 0
-11.890579 -12.084511 -0.5823518 250 0 0 -1.2180456 -6.0244489 -95.4076 0
-11.890301 -12.205242 -0.59553552 250 0 0 -1.2858907 -5.0301881 -92.863976 0
-11.919423 -12.372204 -0.60592699 250 0 0 -1.8606822 -2.4295573 -92.112389 0
-11.91827 -12.449619 -0.58435082 250 0 0 -0.68639183 -1.7445434 -91.080002 0
-11.939378 -12.574964 -0.62766463 250 0 0 -1.5325513 -4.4498291 -90.854942 0
-11.923371 -12.765336 -0.66166472 250 0 0 -3.7268953 -3.1167004 -93.242882 0
-11.934447 -12.830773 -0.65370804 250 0 0 -2.9552665 -2.3662775 -93.942543 0
-11.93721 -12.955146 -0.65418231 250 0 0 -1.3422769 -2.5468509 -96.528374 0
-11.939731 -13.147295 -0.69280499 250 0 0 -0.35168734 -1.9260321 -95.991219 0
-11.933852 -13.332519 -0.71453881 250 0 0 -1.8488582 -2.4155123 -95.474312 0
-11.933959 -13.394595 -0.71230388 250 0 0 -1.6134161 -1.5616231 -92.278214 0
-11.949767 -13.525618 -0.70936877 250 0 0 -3.1161978 -1.546194 -90.956284 0
-11.953468 -13.731386 -0.73372406 250 0 0 -1.3589406 -2.0212328 -88.080856 0
-11.966774 -13.797752 -0.76080716 250 0 0 -2.2973919 -2.3718896 -89.374741 0
-11.93642 -13.928827 -0.76927531 250 0 0 -4.2395444 -0.47058821 -92.656975 0
-11.938804 -14.123419 -0.75845158 250 0 0 -2.8561542 -0.54790974 -96.687897 0
-11.935123 -14.323668 -0.78359908 250 0 0 -2.0478985 -0.66284311 -96.491699 0
-11.945634 -14.392224 -0.80039275 250 0 0 -2.0277579 -1.9236089 -95.487793 0
-11.934435 -14.528822 -0.79642189 250 0 0 -2.3939855 -0.7293669 -94.511536 0
-11.952979 -14.722512 -0.78619754 250 0 0 -1.8678491 -1.875986 -92.240158 0
-11.956965 -14.797593 -0.7795192 250 0 0 -1.2741643 -1.8241456 -91.365494 0
-11.969841 -14.923696 -0.83200264 250 0 0 -1.9132105 -3.5630102 -90.561623 0
-11.963201 -15.137433 -0.84542799 250 0 0 -3.2797096 -1.1373936 -94.873772 0
-11.983466 -15.206056 -0.84622878 250 0 0 -3.4123542 -1.0747122 -95.655594 0
-11.973187 -15.326039 -0.84581226 250 0 0 -2.9454293 -0.53500688 -98.151932 0
-11.957714 -15.549482 -0.87132728 250 0 0 -2.7587597 -1.4092301 -94.753853 0
-11.936789 -15.73955 -0.89431632 250 0 0 -3.3286021 -1.7478502 -84.980919 0
-11.940849 -15.83645 -0.89624882 250 0 0 -5.2348695 -1.9389218 -81.778183 0
-11.92009 -15.94935 -0.90941226 250 0 0 -4.0556006 0.01405538 -78.914627 0
-11.897665 -16.166409 -0.96922702 250 0 0 -4.4076419 -1.2761649 -75.912666 0
-11.877618 -16.237509 -0.96851772 250 0 0 -4.6636777 -1.0593022 -76.214249 0
-11.828736 -16.357475 -0.96850222 250 0 0 -4.2516756 -1.007701 -74.806175 0
-11.754862 -16.533834 -0.95547819 250 0 0 -1.5515887 -1.0183833 -72.210434 0
-11.739128 -16.600298 -0.97318989 250 0 0 -0.9741624 -1.6209068 -70.881897 0
-11.663912 -16.745432 -1.0036259 250 0 0 0.89896476 -1.3455219 -67.74736 0
-11.548392 -16.910439 -1.0275464 250 0 0 1.7663821 -3.061774 -58.26746 0
-11.465672 -17.08489 -1.046609 250 0 0 0.051545963 -0.53150713 -53.827526 0
-11.425163 -17.225487 -1.0473602 250 0 0 1.9396584 -0.050098296 -50.995159 0
-11.360828 -17.348755 -1.0965713 250 0 0 1.1042053 -2.4256525 -48.868977 0
-11.237505 -17.533195 -1.1143168 250 0 0 0.53553516 -2.3856468 -50.040749 0
-11.216994 -17.601379 -1.1214541 250 0 0 -0.2906121 -2.5890296 -51.105911 0
-11.110674 -17.687519 -1.1099174 250 0 0 1.5631586 -1.3444792 -52.17585 0
-10.979047 -17.848349 -1.1800598 250 0 0 2.5879929 -1.3713517 -49.27454 0
-10.837561 -18.023634 -1.2071675 250 0 0 0.53250277 -2.6752634 -45.031506 0
-10.824116 -18.117022 -1.2172077 250 0 0 -0.13805795 -2.3285124 -42.447723 0
-10.727095 -18.211075 -1.2031133 250 0 0 1.280389 -1.6533802 -42.040333 0
-10.601495 -18.412092 -1.2630805 250 0 0 2.5803995 -3.337517 -41.960773 0
-10.552816 -18.479124 -1.2674265 250 0 0 2.1174996 -3.0514295 -43.792892 0
-10.440462 -18.566717 -1.2662032 250 0 0 2.5083349 -2.9359417 -45.708874 0
-10.306665 -18.714058 -1.2752554 250 0 0 3.7062767 -1.5395068 -48.970631 0
-10.148404 -18.863962 -1.3009454 250 0 0 5.494132 -0.66336757 -47.345867 0
-10.098175 -18.911373 -1.3217484 250 0 0 6.0548801 -1.8024342 -45.951946 0
-9.9941988 -19.045654 -1.3325813 250 0 0 6.0015497 -2.0313711 -42.772034 0
-9.8501253 -19.189562 -1.3383046 250 0 0 5.4330306 -0.14534977 -42.530758 0
-9.8049917 -19.242727 -1.3464731 250 0 0 5.3478909 -0.5625146 -41.442459 0
-9.7241859 -19.358858 -1.406477 250 0 0 4.3488269 0.23603651 -42.613083 0
-9.5426254 -19.514517 -1.3954331 250 0 0 1.2457587 0.61655468 -45.459339 0
-9.5066795 -19.579771 -1.390721 250 0 0 0.2739391 -0.9628377 -46.844814 0
-9.4064121 -19.644035 -1.413886 250 0 0 2.8963997 0.55300176 -48.494514 0
-9.2430191 -19.806229 -1.4299312 250 0 0 4.3778114 2.4767625 -46.256344 0
-9.0803308 -19.958607 -1.4587152 250 0 0 3.7076058 -0.39340997 -42.856655 0
-9.0544424 -20.052286 -1.4609325 250 0 0 2.625392 -0.66254848 -41.424301 0
-8.9518366 -20.108562 -1.4492701 250 0 0 3.0494432 -0.47364071 -41.073189 0
-8.8282928 -20.283167 -1.5228499 250 0 0 3.0018396 -1.5407928 -39.769974 0
-8.780304 -20.347076 -1.5379803 250 0 0 1.6376631 -0.83736533 -41.436783 0
-8.6735096 -20.45232 -1.5479518 250 0 0 -1.0754513 -0.36768305 -45.622822 0
-8.5261173 -20.581158 -1.542886 250 0 0 1.1609906 1.4232825 -49.592964 0
-8.3525162 -20.721569 -1.5776483 250 0 0 2.4020591 1.0618048 -48.011444 0
-8.2901096 -20.778084 -1.581553 250 0 0 3.2462571 -0.18996234 -46.581184 0
-8.1829472 -20.874187 -1.6070442 250 0 0 3.2645185 -0.93119878 -43.729939 0
-8.0321846 -21.036993 -1.6183668 250 0 0 1.643714 -0.29586676 -41.633778 0
-7.9719996 -21.086914 -1.6162819 250 0 0 2.6546359 -0.37056646 -41.032108 0
-7.8694701 -21.19215 -1.6576203 250 0 0 2.0351088 -2.3091705 -40.261082 0
-7.7081289 -21.323719 -1.7068083 250 0 0 0.56919199 -1.4704354 -43.435528 0
-7.6716566 -21.388489 -1.7108312 250 0 0 -0.0090406705 -0.7236219 -45.244446 0
-7.5340953 -21.448927 -1.7013736 250 0 0 2.0577345 0.49428841 -47.616585 0
-7.3621902 -21.581982 -1.7336601 250 0 0 4.572331 -1.7510968 -46.045052 0
-7.2005939 -21.7535 -1.7543124 250 0 0 2.8700409 -2.6158409 -43.422379 0
-7.1631699 -21.840937 -1.7494366 250 0 0 1.4096128 -2.7785928 -42.272594 0
-7.0592475 -21.915312 -1.7517983 250 0 0 1.8499302 -2.5394568 -42.984707 0
-6.921618 -22.087461 -1.8171309 250 0 0 1.3163581 -2.0287278 -43.593758 0
-6.8708177 -22.142149 -1.8350919 250 0 0 0.21271603 -1.2821447 -44.779202 0
-6.7464299 -22.225454 -1.8289987 250 0 0 -0.080695421 0.72369838 -47.542168 0
-6.5944424 -22.364059 -1.8275236 250 0 0 2.034946 -0.47022188 -49.501778 0
-6.4302216 -22.520981 -1.8608848 250 0 0 3.5292645 -1.1538579 -47.700756 0
-6.3874364 -22.57535 -1.8950614 250 0 0 3.6121664 -2.6489644 -46.85545 0
-6.2684474 -22.671564 -1.9066122 250 0 0 3.787719 -1.3941946 -45.078465 0
-6.1226397 -22.821903 -1.8979969 250 0 0 3.244729 -1.2561573 -41.736076 0
-6.0799956 -22.873739 -1.9108471 250 0 0 3.6006165 -1.5097311 -40.815922 0
-5.9911022 -22.973011 -1.9578285 250 0 0 2.2495987 -1.8616612 -41.458534 0
-5.8344078 -23.124704 -1.9922074 250 0 0 0.51047862 -2.533792 -45.568703 0
-5.7796059 -23.161131 -1.9928212 250 0 0 0.81479293 -1.7487667 -47.398155 0
-5.662694 -23.235415 -1.9843428 250 0 0 3.3758483 -0.53998709 -48.324669 0
-5.5034966 -23.387583 -2.0377831 250 0 0 4.7481408 -0.17129554 -46.923481 0
-5.3346581 -23.544924 -2.0474594 250 0 0 5.2401514 -1.0271862 -44.949394 0
-5.3114095 -23.631849 -2.0451972 250 0 0 3.444279 -1.3389775 -43.990799 0
-5.2062745 -23.708296 -2.0661814 250 0 0 3.9549694 0.59648281 -45.64032 0
-5.0607095 -23.849728 -2.1310284 250 0 0 2.0507445 0.24895039 -47.72419 0
-4.9991422 -23.899311 -2.139323 250 0 0 2.3131909 0.63068533 -48.649063 0
-4.8879428 -23.989729 -2.1519997 250 0 0 0.56172442 0.19854735 -51.032646 0
-4.7079644 -24.099043 -2.1538281 250 0 0 2.3549123 2.0232151 -51.962029 0
-4.6572533 -24.141573 -2.1718299 250 0 0 3.0649226 1.873824 -50.963188 0
-4.525291 -24.22341 -2.2028153 250 0 0 3.8792255 1.7418174 -47.491066 0
-4.3414469 -24.362318 -2.2416289 250 0 0 2.2770102 0.84379369 -38.576607 0
-4.1380196 -24.467201 -2.2457838 250 0 0 1.9915993 1.8415642 -31.564051 0
-4.0709186 -24.517488 -2.2506533 250 0 0 1.8967946 0.6859712 -27.998835 0
-3.9543738 -24.616985 -2.3065214 250 0 0 1.4383528 -1.3854926 -24.429377 0
-3.7359672 -24.718395 -2.2971041 250 0 0 0.054514099 -0.24732041 -25.511963 0
-3.668016 -24.727859 -2.3052738 250 0 0 1.1079092 0.052554172 -26.065542 0
-3.5215437 -24.770773 -2.2977927 250 0 0 3.8864825 -0.28832901 -23.729607 0
-3.2976096 -24.82514 -2.3426232 250 0 0 5.5060725 -1.9162743 -16.53513 0
-3.0630248 -24.874926 -2.3257649 250 0 0 3.9189105 -2.3720536 -4.7140651 0
-2.9870222 -24.871052 -2.3187907 250 0 0 2.3637681 -3.5495145 -2.1630821 0
-2.8464701 -24.882429 -2.3248496 250 0 0 5.2568374 -3.0722392 4.0948682 0
-2.6149418 -24.900629 -2.3885796 250 0 0 4.74124 -3.3774598 8.0592136 0
-2.5377488 -24.884113 -2.3740923 250 0 0 3.607599 -2.4023879 8.3566961 0
-2.392066 -24.883049 -2.3739157 250 0 0 3.0628099 -1.9135613 9.743969 0
-2.1783068 -24.851744 -2.3698547 250 0 0 4.6772614 -2.3325849 12.564036 0
-2.1067643 -24.83709 -2.3861623 250 0 0 5.2484503 -2.4204032 14.138142 0
-1.9539294 -24.804277 -2.3904469 250 0 0 5.6878996 -4.446703 18.580055 0
-1.711345 -24.773296 -2.3814542 250 0 0 4.0872188 -5.7418952 24.765676 0
-1.5039551 -24.71097 -2.36305 250 0 0 6.0819869 -6.4208326 28.669117 0
-1.4358037 -24.688995 -2.3852348 250 0 0 6.5183887 -7.6070995 29.426186 0
-1.3022034 -24.639923 -2.4152648 250 0 0 5.0062194 -6.2504263 29.398224 0
-1.0994347 -24.563444 -2.4020846 250 0 0 3.1240113 -3.6603062 28.914888 0
-1.0331041 -24.528654 -2.3816807 250 0 0 3.9186139 -2.9315896 28.920343 0
-0.91083163 -24.458519 -2.4028759 250 0 0 4.9288096 -4.5946646 30.536037 0
-0.69240332 -24.361111 -2.4121137 250 0 0 5.7433991 -7.2050767 35.612606 0
-0.48539793 -24.270445 -2.3822699 250 0 0 4.1182981 -7.8693705 39.567284 0
-0.44373569 -24.225517 -2.3762012 250 0 0 4.7456193 -7.173028 40.224731 0
-0.31541821 -24.155823 -2.3615212 250 0 0 5.2036119 -8.6507702 42.366306 0
-0.13882279 -24.022173 -2.3979855 250 0 0 4.5735822 -8.163456 40.313915 0
-0.093658701 -23.972635 -2.3845589 250 0 0 4.5171785 -8.1029482 40.430607 0
0.029976171 -23.9035 -2.3950875 250 0 0 4.9699101 -7.8496971 38.292797 0
0.18761513 -23.765833 -2.3811924 250 0 0 8.5154486 -5.8534627 38.146797 0
0.23747596 -23.710833 -2.3885796 250 0 0 8.6641064 -6.1964583 39.595123 0
0.36101022 -23.614647 -2.4077885 250 0 0 7.6753283 -7.8643274 42.774475 0
0.56338984 -23.471827 -2.3780005 250 0 0 5.5135503 -5.8156719 47.091595 0
0.71644372 -23.30588 -2.3649256 250 0 0 6.1973166 -7.6150112 48.264313 0
0.76842046 -23.249571 -2.3861794 250 0 0 6.3363585 -8.489584 48.494297 0
0.87814546 -23.134672 -2.4024 250 0 0 5.2494068 -8.0403738 46.378403 0
1.0160741 -22.982285 -2.3893147 250 0 0 5.1348014 -5.4690132 42.82774 0
1.0575891 -22.930464 -2.3773232 250 0 0 6.9926968 -4.3940706 42.840588 0
1.1609877 -22.833855 -2.3905196 250 0 0 8.075037 -4.6297317 43.205219 0
1.3495485 -22.677092 -2.4037786 250 0 0 7.6090932 -5.604847 43.941906 0
1.5357555 -22.533827 -2.3600919 250 0 0 4.8796325 -7.3230033 45.295799 0
1.5727329 -22.479214 -2.3571644 250 0 0 5.8649483 -6.8573174 45.727959 0
1.687295 -22.383602 -2.369246 250 0 0 6.1301126 -7.690804 46.828785 0
1.8531202 -22.210835 -2.3980105 250 0 0 4.5510583 -4.4929843 44.586308 0
1.9216107 -22.158529 -2.3783822 250 0 0 4.6673312 -4.1734152 43.895107 0
2.005697 -22.033745 -2.3554718 250 0 0 6.1039453 -3.3092196 40.172592 0
2.1811509 -21.887276 -2.3711269 250 0 0 9.2842188 -5.0109143 40.477325 0
2.3424623 -21.706705 -2.3682013 250 0 0 8.2491589 -4.2889848 42.433884 0
2.4107983 -21.656544 -2.3519533 250 0 0 8.4488173 -4.6360602 45.451401 0
2.5326841 -21.554235 -2.3188691 250 0 0 5.2162695 -7.4568515 46.713512 0
2.7041712 -21.385609 -2.3385973 250 0 0 5.7483754 -9.2121325 47.843781 0
2.7701647 -21.334366 -2.3707016 250 0 0 5.0399966 -8.5467596 45.977436 0
2.8520617 -21.191624 -2.347271 250 0 0 5.1497135 -6.1964855 43.316551 0
2.9957287 -21.025135 -2.3002753 250 0 0 5.7947631 -6.2296529 41.806221 0
3.0518994 -20.9729 -2.2954786 250 0 0 7.3458967 -6.841907 41.44355 0
3.1501563 -20.852896 -2.3221166 250 0 0 8.541894 -7.255096 41.648277 0
3.315521 -20.681044 -2.3226964 250 0 0 8.6461039 -8.813797 46.05759 0
3.4685512 -20.488571 -2.2588365 250 0 0 6.4323997 -9.8625059 49.601654 0
3.5332849 -20.429119 -2.2483177 250 0 0 6.888104 -11.569974 51.352356 0
3.6576903 -20.311975 -2.3237057 250 0 0 5.7373209 -12.762962 50.325397 0
3.7989573 -20.131983 -2.3090038 250 0 0 5.8622465 -10.796963 45.141151 0
3.8369823 -20.072887 -2.290834 250 0 0 6.7709947 -9.5960903 44.147648 0
3.943934 -19.975567 -2.2998018 250 0 0 9.074975 -10.479473 42.182938 0
4.0615363 -19.792397 -2.3299761 250 0 0 10.412029 -6.8782649 41.50642 0
4.1296678 -19.741093 -2.3397019 250 0 0 9.1832714 -7.0210705 42.769333 0
4.2600904 -19.637383 -2.3061769 250 0 0 7.3417897 -7.4237571 43.731449 0
4.401051 -19.474279 -2.2508824 250 0 0 9.0484676 -9.6503057 44.894981 0
4.5791082 -19.308802 -2.3057044 250 0 0 5.9896064 -10.728904 44.067837 0
4.6295028 -19.245441 -2.3033209 250 0 0 4.6658792 -10.02002 42.825623 0
4.7450261 -19.145939 -2.2776868 250 0 0 4.5775404 -9.6077824 40.782944 0
4.8858867 -18.993069 -2.2741275 250 0 0 8.5847769 -9.1220074 40.201149 0
4.9360614 -18.9438 -2.293169 250 0 0 9.2537737 -8.4346228 40.311703 0
5.0435886 -18.82979 -2.2854512 250 0 0 9.5383081 -10.974351 42.880856 0
5.2362428 -18.673382 -2.2649493 250 0 0 6.1414928 -12.103733 48.002018 0
5.388392 -18.506315 -2.2384682 250 0 0 8.6431561 -12.536756 48.705574 0
5.4482265 -18.449081 -2.2718248 250 0 0 8.0959606 -13.138159 48.463833 0
5.5505786 -18.331972 -2.2912302 250 0 0 6.6755886 -12.774846 45.932514 0
5.7030854 -18.177383 -2.2786696 250 0 0 5.5289564 -11.436912 40.851681 0
5.7451615 -18.124653 -2.2493315 250 0 0 7.7364688 -10.623369 40.172096 0
5.8364868 -18.027983 -2.2440467 250 0 0 9.2793837 -12.547209 38.89016 0
5.9812613 -17.874029 -2.2594497 250 0 0 9.3557806 -14.507112 41.334885 0
6.0087242 -17.811245 -2.2343509 250 0 0 9.5796833 -15.111698 42.983696 0
6.1587367 -17.710083 -2.2076459 250 0 0 7.3071575 -16.60816 45.170963 0
6.280036 -17.55884 -2.2074089 250 0 0 7.2745242 -18.535065 47.892685 0
6.4569449 -17.398874 -2.2639182 250 0 0 4.1951838 -15.773526 46.313568 0
6.4897966 -17.328714 -2.2572379 250 0 0 3.9958065 -14.823071 45.73251 0
6.5949707 -17.236025 -2.2348068 250 0 0 3.4745626 -13.089373 44.452686 0
6.7294779 -17.078259 -2.2405028 250 0 0 7.6073971 -11.233309 42.459213 0
6.7744846 -17.016491 -2.2468913 250 0 0 8.0901928 -10.823644 43.082878 0
6.8945189 -16.903492 -2.2591157 250 0 0 8.6250601 -12.224689 44.725918 0
7.0788155 -16.74642 -2.2009609 250 0 0 6.8152366 -13.932084 46.737206 0
7.2228994 -16.589294 -2.1912398 250 0 0 7.611196 -14.081756 48.037922 0
7.2874298 -16.543192 -2.2179968 250 0 0 7.2054982 -14.442586 48.027027 0
7.3748913 -16.416348 -2.237494 250 0 0 5.7771788 -12.437863 45.958733 0
7.5417171 -16.276743 -2.2172911 250 0 0 6.0007463 -11.012523 43.601318 0
7.6009417 -16.231241 -2.2073562 250 0 0 8.244215 -9.130146 42.958511 0
7.7059374 -16.111406 -2.2087932 250 0 0 8.7671385 -9.2420673 41.800434 0
7.8790698 -15.935308 -2.2034569 250 0 0 8.4693899 -11.716983 46.050121 0
7.9410362 -15.886314 -2.2043746 250 0 0 7.8080935 -12.043141 48.13765 0
8.0664177 -15.791963 -2.1841688 250 0 0 7.0606298 -11.893119 48.248886 0
8.2144327 -15.631689 -2.175832 250 0 0 7.572845 -13.466187 50.693821 0
8.3684759 -15.468758 -2.1954467 250 0 0 5.5118423 -12.751712 49.65844 0
8.4271698 -15.41935 -2.1863518 250 0 0 4.4328108 -12.72028 49.621555 0
8.5091448 -15.311503 -2.1773717 250 0 0 6.0495114 -11.12443 47.548229 0
8.6157961 -15.122942 -2.1766913 250 0 0 8.172204 -11.260165 49.789127 0
8.729022 -14.92226 -2.1759756 250 0 0 7.4044151 -14.33893 56.762707 0
8.781065 -14.868237 -2.1744258 250 0 0 7.1212015 -13.913917 60.511871 0
8.8405342 -14.748057 -2.1568367 250 0 0 4.800138 -13.787625 65.485184 0
8.9557772 -14.551618 -2.1595049 250 0 0 3.5963726 -14.102225 72.200386 0
9.0047255 -14.487556 -2.1767304 250 0 0 3.4951329 -13.949321 72.210411 0
9.048708 -14.349588 -2.1717403 250 0 0 3.5996699 -11.206551 71.248405 0
9.0990019 -14.146886 -2.1239295 250 0 0 3.5750902 -10.365855 71.761879 0
9.1221466 -14.076476 -2.109261 250 0 0 4.0279231 -10.908101 73.62574 0
9.1562748 -13.93057 -2.1376266 250 0 0 4.4762435 -12.564834 77.665092 0
9.1852989 -13.709501 -2.1370289 250 0 0 2.5144713 -14.396875 84.385765 0
9.2156191 -13.508884 -2.0768831 250 0 0 0.98679471 -12.830499 92.947311 0
9.218997 -13.440337 -2.0655975 250 0 0 1.5754462 -13.270522 96.398392 0
9.2462292 -13.285501 -2.0880566 250 0 0 0.96630847 -14.724638 100.23618 0
9.2561083 -13.059435 -2.0727031 250 0 0 -0.54044396 -12.051244 101.55873 0
9.2729111 -12.975121 -2.0566201 250 0 0 -1.9187338 -12.656216 100.81172 0
9.2471972 -12.836271 -2.0332694 250 0 0 1.7981449 -11.101583 99.953217 0
9.2205744 -12.617764 -2.0417356 250 0 0 3.1512823 -13.818583 104.38619 0
9.218895 -12.382455 -2.0424495 250 0 0 1.4310472 -16.100849 111.00993 0
9.253871 -12.293463 -2.0194888 250 0 0 -0.70439637 -15.53061 112.80183 0
9.2015285 -12.150672 -1.994974 250 0 0 -0.8949632 -14.207024 113.71351 0
9.1755915 -11.909142 -1.996659 250 0 0 -0.54212683 -16.467937 116.98576 0
9.1606779 -11.830916 -2.0003734 250 0 0 -0.37270871 -15.220362 116.5031 0
9.1320152 -11.674777 -1.9488616 250 0 0 -2.0738325 -14.752936 116.77203 0
9.032567 -11.434024 -1.9079161 250 0 0 1.3759514 -13.323368 114.67539 0
8.974205 -11.223684 -1.9031739 250 0 0 3.0458045 -14.879816 119.82549 0
8.9486322 -11.156442 -1.887975 250 0 0 2.3439617 -15.474059 121.65096 0
8.9123306 -11.019347 -1.849884 250 0 0 -1.6011853 -15.143456 128.70296 0
8.8512859 -10.793028 -1.7746119 250 0 0 -2.9610212 -13.718448 130.75891 0
8.8312883 -10.724044 -1.7431023 250 0 0 -3.1121671 -14.511224 131.89758 0
8.7911386 -10.561095 -1.7537309 250 0 0 -3.0658133 -17.230709 131.89964 0
8.7178822 -10.356302 -1.7264723 250 0 0 -3.1096678 -16.220867 129.17067 0
8.7199068 -10.274562 -1.7059184 250 0 0 -3.9370549 -16.435795 127.86505 0
8.6522017 -10.166649 -1.7038645 250 0 0 -0.58639592 -13.959338 125.37559 0
8.5447683 -9.979949 -1.6752316 250 0 0 1.5003471 -16.081064 129.03073 0
8.4762812 -9.7783813 -1.6686497 250 0 0 -0.65381831 -16.009403 132.42801 0
0 0 0 1 0 0 0 1 0 0 0 1 0 0 0 0 0 500 1 0 0
