ply
format ascii 1.0
comment PCL generated
element vertex 601
property float x
property float y
property float z
property uchar red
property uchar green
property uchar blue
property float nx
property float ny
property float nz
property float curvature
element camera 1
property float view_px
property float view_py
property float view_pz
property float x_axisx
property float x_axisy
property float x_axisz
property float y_axisx
property float y_axisy
property float y_axisz
property float z_axisx
property float z_axisy
property float z_axisz
property float focal
property float scalex
property float scaley
property float centerx
property float centery
property int viewportx
property int viewporty
property float k1
property float k2
end_header
0.035642371 -0.00997956 0.0012525996 250 250 250 0.44689673 1.1931729 3.5463645 0
0.043047763 -0.014760068 0.0022430569 250 250 250 0.48730502 1.3904288 4.0977836 0
0.049641449 -0.018550411 0.00317382 250 250 250 0.57324547 1.5503389 4.5112996 0
0.055546213 -0.021239161 0.0039744293 250 250 250 0.68051499 1.6025776 4.8512173 0
0.061159194 -0.023560988 0.0046108915 250 250 250 0.75259256 1.5968767 5.3072133 0
0.066716231 -0.026036734 0.0048995484 250 250 250 0.87266302 1.5754799 5.8296208 0
0.072071373 -0.02847556 0.0050814752 250 250 250 1.0475479 1.6044459 6.1461716 0
0.077292651 -0.030868575 0.0050864238 250 250 250 1.2740242 1.6583604 6.3324242 0
0.082257181 -0.032771681 0.0050648586 250 250 250 1.450047 1.7419748 6.4909196 0
0.087151699 -0.03465971 0.0050614793 250 250 250 1.6221746 1.8205758 6.6470284 0
0.09186656 -0.036365405 0.0047014994 250 250 250 1.7835788 1.8385859 6.7069678 0
0.096484713 -0.038016818 0.0042845062 250 250 250 1.9317296 1.9380869 6.690393 0
0.10083421 -0.039145701 0.0041224733 250 250 250 2.0388143 2.0422487 6.6800008 0
0.10500308 -0.039921507 0.004504167 250 250 250 2.1652272 2.0022287 6.761394 0
0.10884769 -0.040605295 0.0046464996 250 250 250 2.2880125 1.8283398 6.9585686 0
0.11252261 -0.041330796 0.0047172303 250 250 250 2.3901362 1.7094067 7.1934624 0
0.11607028 -0.042146835 0.0047405511 250 250 250 2.4683993 1.6271962 7.3850646 0
0.11952121 -0.042850409 0.0045138653 250 250 250 2.5311687 1.5976373 7.5066853 0
0.12266366 -0.041142914 0.0038664527 250 250 250 2.4259923 1.7078274 7.6479821 0
0.12611786 -0.039890576 0.0032578956 250 250 250 2.306478 1.9327635 8.0632505 0
0.12967134 -0.038628612 0.0028951301 250 250 250 2.1725504 2.2086828 8.5082989 0
0.13343388 -0.037868686 0.0026337905 250 250 250 2.1117969 2.4821718 8.9573364 0
0.13723277 -0.037200842 0.002439918 250 250 250 2.0727229 2.7168701 9.2903214 0
0.14114909 -0.03659403 0.0029464522 250 250 250 2.0868256 2.8665762 9.579874 0
0.14509518 -0.035353512 0.0033305958 250 250 250 2.0940857 2.7948999 10.010124 0
0.14907579 -0.034008838 0.0031733445 250 250 250 2.0175893 2.6432974 10.681669 0
0.15331197 -0.033397168 0.0029192625 250 250 250 1.9449601 2.5453503 11.490799 0
0.15797938 -0.034338001 0.0014076249 250 250 250 2.0773432 2.4846616 12.165095 0
0.16355607 -0.03649598 0.00037492576 250 250 250 2.3313255 2.7194495 12.396151 0
0.16969503 -0.038539506 8.3996631e-05 250 250 250 2.6594203 2.8595221 12.26349 0
0.17551243 -0.038996514 -0.00051913341 250 250 250 2.896955 2.7748659 12.093471 0
0.18124813 -0.038775675 -0.0012977597 250 250 250 3.0599864 2.8041675 12.242746 0
0.18724784 -0.038945634 -0.002162274 250 250 250 3.2089314 2.9328444 12.672472 0
0.19323845 -0.039088521 -0.0029635548 250 250 250 3.3086276 3.1418505 13.060608 0
0.1993947 -0.038902145 -0.0030869017 250 250 250 3.3836267 3.3867524 13.562954 0
0.20559704 -0.038863976 -0.0031819518 250 250 250 3.4020493 3.5143988 14.19772 0
0.21161035 -0.038886748 -0.0033044326 250 250 250 3.3802872 3.6862297 14.742201 0
0.21746252 -0.038741227 -0.0034807532 250 250 250 3.3428917 3.9834116 15.186129 0
0.22343692 -0.03879603 -0.0025473153 250 250 250 3.3638077 4.3456626 15.666761 0
0.2291991 -0.038938604 -0.0015762694 250 250 250 3.4360871 4.5377302 16.089184 0
0.23482721 -0.039502259 -0.00085980061 250 250 250 3.4710736 4.6716218 16.350744 0
0.24020267 -0.03979791 0.00024040703 250 250 250 3.5343397 4.8112426 16.35932 0
0.24505039 -0.039610986 0.0012470476 250 250 250 3.5817451 4.8362923 16.346817 0
0.24953757 -0.039237626 0.0021435369 250 250 250 3.5511036 4.8706355 16.507479 0
0.25394952 -0.038959119 0.0030088648 250 250 250 3.5133412 4.9554362 16.739985 0
0.25811869 -0.038671561 0.0038408558 250 250 250 3.5158188 5.0223503 16.768476 0
0.26197806 -0.038113717 0.0044885022 250 250 250 3.563607 5.0733066 16.695875 0
0.26569405 -0.037535328 0.004902584 250 250 250 3.6537526 5.2058897 16.690197 0
0.26932028 -0.036940016 0.0057122987 250 250 250 3.7258308 5.429317 16.62756 0
0.27282256 -0.035846811 0.0068960255 250 250 250 3.8412313 5.5139561 16.601692 0
0.27619931 -0.034674682 0.0077433432 250 250 250 3.9779141 5.4462504 16.798714 0
0.27937233 -0.032878999 0.0086890748 250 250 250 4.0377774 5.4725947 17.173262 0
0.28282413 -0.031505343 0.0099832974 250 250 250 4.055809 5.4679356 17.802624 0
0.28642231 -0.030821629 0.010733949 250 250 250 4.086422 5.3925228 18.382135 0
0.28999531 -0.030152224 0.011473875 250 250 250 4.0960808 5.5295091 18.738209 0
0.29375514 -0.029274702 0.012469292 250 250 250 3.9874413 5.7268434 18.929901 0
0.2971735 -0.027112784 0.01436345 250 250 250 3.8306971 5.8588128 19.151762 0
0.30056128 -0.024555862 0.01632075 250 250 250 3.6273053 5.8312483 19.576899 0
0.30378193 -0.021841995 0.01807422 250 250 250 3.3286469 5.7300568 20.13888 0
0.30681223 -0.018932208 0.019027213 250 250 250 2.9854171 5.7390103 20.651121 0
0.31053886 -0.017242648 0.019728046 250 250 250 2.8083606 6.0292664 21.037886 0
0.31457996 -0.015378143 0.020748712 250 250 250 2.7539001 6.4500294 21.082848 0
0.3189556 -0.01330838 0.021746583 250 250 250 2.7945378 6.812675 21.051699 0
0.32342184 -0.010794416 0.023031736 250 250 250 2.8172963 7.1995645 21.1236 0
0.32821432 -0.0084585436 0.024344781 250 250 250 2.8563185 7.6881838 21.424799 0
0.33385953 -0.0071425899 0.026044033 250 250 250 2.8535137 8.1534681 21.74111 0
0.33953983 -0.0058578355 0.027812254 250 250 250 2.8278854 8.5008354 21.837339 0
0.34513703 -0.004165879 0.029628385 250 250 250 2.7981391 8.8575001 21.974443 0
0.3509205 -0.0024835384 0.032037035 250 250 250 2.7874246 9.1475534 22.215641 0
0.35611999 -0.00018501196 0.034666728 250 250 250 2.6891584 9.2608032 22.402809 0
0.36130825 0.0012053058 0.037090641 250 250 250 2.6385193 9.2418375 22.815805 0
0.36614174 0.0012725182 0.040560387 250 250 250 2.626313 9.3000193 22.913692 0
0.37049082 0.0013684395 0.043943007 250 250 250 2.8246796 9.1949348 22.501091 0
0.37460926 0.001485606 0.046524059 250 250 250 3.1766765 8.9599857 22.035583 0
0.37824026 0.0014303295 0.04985198 250 250 250 3.5303192 8.8680153 21.528061 0
0.38084355 0.0035043363 0.052023962 250 250 250 4.0346603 8.7137613 21.174936 0
0.38363221 0.0053925719 0.054306727 250 250 250 4.4478354 8.5877495 21.281616 0
0.3857877 0.0065856297 0.054963015 250 250 250 4.0978169 8.4758329 21.537003 0
0.38806179 0.0085514095 0.059135944 250 250 250 3.4439771 8.7756109 21.799692 0
0.3898038 0.013146083 0.066606022 250 250 250 3.2406685 8.7530689 22.190237 0
0.39112628 0.015339694 0.068753064 250 250 250 3.3778729 8.2111788 22.930738 0
0.39210054 0.016567666 0.068342775 250 250 250 2.9419842 8.088376 23.294025 0
0.39278588 0.019518785 0.070736282 250 250 250 2.2806761 8.5137968 23.375317 0
0.39375114 0.022705873 0.073896535 250 250 250 1.8381258 8.8318472 23.569862 0
0.39481205 0.025942132 0.077195138 250 250 250 1.4249638 9.0762072 23.740284 0
0.3959071 0.029247243 0.080930702 250 250 250 0.9988994 9.2414093 23.813253 0
0.39689413 0.032810975 0.084750697 250 250 250 0.65948558 9.3255453 23.960432 0
0.39806694 0.035835244 0.088131711 250 250 250 0.33247015 9.3700972 24.176294 0
0.39913106 0.038971469 0.09143883 250 250 250 -0.027890181 9.6398592 24.327789 0
0.4005577 0.041803349 0.095125087 250 250 250 -0.33999142 10.109045 24.592272 0
0.40285349 0.043388665 0.10043632 250 250 250 -0.64553034 10.586043 24.682426 0
0.40443555 0.046098411 0.10628776 250 250 250 -1.0214316 10.81937 24.48324 0
0.40581423 0.047828007 0.1122707 250 250 250 -1.3482742 10.80615 24.521204 0
0.40670753 0.049238674 0.11820243 250 250 250 -1.849674 10.837378 24.40996 0
0.40707338 0.051973328 0.12519991 250 250 250 -2.276684 10.930801 24.253016 0
0.40767714 0.054136246 0.13236852 250 250 250 -2.5828443 10.920623 24.344759 0
0.40790638 0.055478733 0.13900943 250 250 250 -3.086504 10.830472 24.335043 0
0.40780509 0.057482809 0.14654578 250 250 250 -3.7532239 11.037683 24.1436 0
0.40765375 0.059963599 0.15460123 250 250 250 -4.3115282 11.173044 24.053036 0
0.40792638 0.061402891 0.1629457 250 250 250 -4.9024115 11.197194 24.051052 0
0.40742654 0.063041389 0.17068529 250 250 250 -5.5988073 11.120187 23.779894 0
0.40625897 0.06510552 0.17757538 250 250 250 -6.3202105 11.222427 23.504675 0
0.4052307 0.067601793 0.18575086 250 250 250 -7.0362067 11.581427 23.25861 0
0.4039748 0.070366621 0.19375372 250 250 250 -7.6237617 11.736707 23.200113 0
0.40361711 0.071228214 0.20249319 250 250 250 -8.1085043 11.972304 23.28138 0
0.40331843 0.071853817 0.21241236 250 250 250 -8.4878111 12.1238 22.893682 0
0.402008 0.074544959 0.22222149 250 250 250 -8.657217 11.870322 22.421839 0
0.39913297 0.075755484 0.22993381 250 250 250 -8.7382898 11.358982 22.655949 0
0.39691827 0.07604181 0.23991148 250 250 250 -8.966507 11.119038 22.882242 0
0.39433765 0.074731231 0.24978626 250 250 250 -9.1508312 10.599229 22.804087 0
0.39113474 0.073383085 0.25915432 250 250 250 -9.451396 10.15142 22.295074 0
0.38580298 0.077098854 0.26745722 250 250 250 -9.6777 9.8884935 21.998568 0
0.38284886 0.078225307 0.27834624 250 250 250 -9.7946348 10.003609 22.414141 0
0.38069728 0.0770794 0.28986818 250 250 250 -9.9863243 10.003369 22.733025 0
0.37263101 0.07845892 0.30371687 250 250 250 -10.258668 9.8610716 22.004667 0
0.37506911 0.066458747 0.31067711 250 250 250 -10.117904 9.4095602 20.965677 0
0.3680985 0.074506707 0.3157703 250 250 250 -10.513368 9.338603 20.027773 0
0.36299363 0.087020077 0.33091334 250 250 250 -10.222252 9.3387461 20.596588 0
0.35848907 0.080511019 0.34023446 250 250 250 -9.6825476 8.5219326 21.616859 0
0.35358974 0.073767312 0.34898955 250 250 250 -9.5792322 8.0647192 21.759388 0
0.34715593 0.07541088 0.36022985 250 250 250 -9.3521852 7.7965775 21.309975 0
0.34157193 0.073944151 0.36929941 250 250 250 -9.0704565 7.2838211 21.203138 0
0.33544865 0.071453981 0.37549853 250 250 250 -9.2164497 6.8934145 21.342007 0
0.32847002 0.071226016 0.38355637 250 250 250 -9.6134214 6.8143849 21.195536 0
0.32158253 0.074922442 0.39269105 250 250 250 -9.9699554 6.6101227 20.802479 0
0.31511691 0.07849475 0.40167913 250 250 250 -10.16027 6.2720141 20.934361 0
0.30664977 0.080747478 0.41084608 250 250 250 -10.468048 5.7682338 21.026548 0
0.29800785 0.082874887 0.41912022 250 250 250 -10.693976 5.1080766 20.841848 0
0.28903654 0.085012585 0.42733663 250 250 250 -10.892002 4.5218277 20.70607 0
0.28016561 0.087475352 0.43530154 250 250 250 -11.221579 3.9519186 20.701632 0
0.26952955 0.088425845 0.43882239 250 250 250 -11.461163 3.3147352 20.955132 0
0.25813103 0.089084804 0.44305605 250 250 250 -11.853378 2.9899902 20.872206 0
0.24708375 0.088556692 0.44333833 250 250 250 -12.224133 2.6847343 20.642164 0
0.23622343 0.086780071 0.44233501 250 250 250 -12.531365 2.883214 20.500257 0
0.22634579 0.084329784 0.44140369 250 250 250 -13.11256 3.5393865 20.247068 0
0.21580809 0.085628591 0.44280335 250 250 250 -13.925282 4.3659601 19.651611 0
0.20518158 0.091761008 0.44711941 250 250 250 -14.491541 5.2105045 18.661287 0
0.19774133 0.10083858 0.45260635 250 250 250 -14.858045 5.4458556 17.749834 0
0.18921687 0.10622045 0.45372203 250 250 250 -15.062271 5.0866332 17.328049 0
0.18094954 0.10312747 0.45321935 250 250 250 -15.223199 4.8011007 17.123936 0
0.17209087 0.10584607 0.45348564 250 250 250 -15.436001 4.6289053 16.612358 0
0.16333148 0.10859583 0.45359579 250 250 250 -15.377306 4.2519073 16.199558 0
0.15480129 0.10039552 0.45245451 250 250 250 -15.254466 4.0356874 16.073277 0
0.14777771 0.092681594 0.45038027 250 250 250 -15.380035 4.158433 15.857379 0
0.14096375 0.088361621 0.44776833 250 250 250 -15.614268 4.4955611 15.588946 0
0.13415086 0.092767037 0.44928366 250 250 250 -15.921883 4.9147501 15.249479 0
0.1261228 0.11030865 0.45796177 250 250 250 -16.034775 4.863565 14.640324 0
0.12181983 0.098343857 0.45402813 250 250 250 -15.343199 3.7814729 14.738544 0
0.11558362 0.094055258 0.4599565 250 250 250 -14.976697 3.3186922 14.121634 0
0.10964058 0.087155633 0.45506695 250 250 250 -14.983113 2.6144061 13.529494 0
0.10332058 0.082455277 0.45106348 250 250 250 -15.002398 2.2203684 13.072266 0
0.096738659 0.07538873 0.44779915 250 250 250 -15.104618 2.0231502 12.817512 0
0.088315092 0.073855735 0.44649398 250 250 250 -15.319853 2.0577126 11.999435 0
0.081079349 0.072151035 0.44543678 250 250 250 -15.548554 2.0509706 10.941655 0
0.074368112 0.0725604 0.44444188 250 250 250 -15.817959 1.9269465 9.6536007 0
0.067901894 0.077350304 0.44232863 250 250 250 -16.100414 1.6500357 8.6339493 0
0.06153582 0.076713242 0.44098923 250 250 250 -16.371424 1.3139348 8.2449827 0
0.054987252 0.076070912 0.44147682 250 250 250 -16.921509 1.4613611 7.9237909 0
0.047786009 0.081220068 0.4353576 250 250 250 -17.680744 1.3551667 7.6980104 0
0.047310077 0.087095283 0.43067083 250 250 250 -17.787048 1.1038747 7.3071799 0
0.046233743 0.079980791 0.42678481 250 250 250 -17.395571 0.41370469 6.5463529 0
0.043251272 0.080440342 0.42514578 250 250 250 -16.998985 -0.011120303 5.3376756 0
0.04027833 0.08271873 0.42195776 250 250 250 -16.678507 -0.40606526 4.6752005 0
0.03804845 0.079258896 0.42116281 250 250 250 -16.197351 -0.56205612 4.5029383 0
0.035115886 0.07596761 0.42087573 250 250 250 -16.043678 -0.61917824 3.9562335 0
0.031614985 0.077972144 0.41811457 250 250 250 -15.862474 -0.67250603 3.2310219 0
0.028757235 0.078076743 0.41582176 250 250 250 -15.590063 -0.53152817 2.8437433 0
0.025997896 0.077455305 0.41357973 250 250 250 -15.343712 -0.39485577 2.4902585 0
0.023588181 0.076362528 0.41167191 250 250 250 -15.179028 -0.12398735 2.1470327 0
0.021313772 0.071778975 0.41109914 250 250 250 -15.291267 0.4003287 1.6455781 0
0.018559204 0.072436772 0.40125746 250 250 250 -15.733806 0.89991689 0.46361327 0
0.017587526 0.072455309 0.39914823 250 250 250 -15.48243 1.6725558 -0.30889535 0
0.016594265 0.071240202 0.39437443 250 250 250 -15.419021 1.671586 -0.58025116 0
0.015126879 0.070186183 0.39122033 250 250 250 -15.642313 1.8045439 -0.85721004 0
0.013458046 0.069252007 0.38862914 250 250 250 -15.659751 1.7570913 -1.418321 0
0.011886525 0.069257699 0.38495579 250 250 250 -15.360542 1.5249504 -1.8925911 0
0.010420704 0.068744808 0.38208225 250 250 250 -14.905484 1.2828708 -2.1515479 0
0.0094522964 0.068728983 0.37863952 250 250 250 -14.226332 0.96594632 -2.5006742 0
0.0087366914 0.068687655 0.37460265 250 250 250 -13.431618 0.37637764 -2.4419775 0
0.0073713185 0.069431961 0.36749062 250 250 250 -13.123635 -0.22668752 -2.0187614 0
0.0061142766 0.070532247 0.36149573 250 250 250 -13.003684 -0.41555995 -1.5199206 0
0.005034076 0.071064778 0.35537222 250 250 250 -12.594485 -0.87980467 -1.0305864 0
0.0044482476 0.075940743 0.34580889 250 250 250 -11.763583 -1.6816311 -0.49736053 0
0.0039963741 0.07566943 0.34942386 250 250 250 -11.412969 -1.8210896 0.7730031 0
-0.0031427369 0.094636954 0.33375305 250 250 250 -12.258742 -2.2071974 2.0797889 0
-0.00034080559 0.08377853 0.32503909 250 250 250 -13.642595 -1.782743 3.926507 0
0.0014851815 0.081126653 0.32130447 250 250 250 -14.002278 -2.2607846 3.6914122 0
0.001137034 0.088191375 0.30876601 250 250 250 -13.86538 -3.245635 3.1159859 0
0.001697364 0.091507338 0.29949078 250 250 250 -14.127447 -3.53602 3.6822608 0
0.0031637978 0.092863135 0.29083061 250 250 250 -14.253673 -3.8164611 3.8785324 0
0.0046811998 0.088382758 0.28313962 250 250 250 -14.14503 -4.4716311 3.520328 0
0.0013923204 0.1071412 0.27421138 250 250 250 -13.88764 -5.1147747 2.9733856 0
-0.0016518941 0.11627013 0.27006602 250 250 250 -13.807198 -5.1713958 3.6442559 0
-0.003173111 0.11963881 0.26703575 250 250 250 -13.870325 -5.1446218 4.3464222 0
-0.0051367134 0.12574656 0.26502606 250 250 250 -14.166862 -4.9769516 4.9386201 0
-0.0054289429 0.12097765 0.26599413 250 250 250 -15.055135 -4.4956775 5.6950569 0
-0.0059793117 0.13218823 0.25528869 250 250 250 -16.151199 -4.8069992 5.7065701 0
-0.014827228 0.1532473 0.2523632 250 250 250 -16.973759 -4.7061191 6.4901123 0
-0.022102131 0.15672791 0.2471236 250 250 250 -18.048407 -3.9605756 8.0935688 0
-0.029670712 0.17080155 0.24457166 250 250 250 -19.192974 -2.794662 8.842083 0
-0.033797175 0.18399522 0.24537925 250 250 250 -19.993742 -1.8162178 9.5397682 0
-0.036535148 0.1880084 0.2557756 250 250 250 -20.879444 -1.0497088 9.6764164 0
-0.0394109 0.19131355 0.25855801 250 250 250 -21.805466 -0.91395986 8.9669199 0
-0.040783372 0.20489134 0.26465571 250 250 250 -22.406584 -0.79833263 7.8122826 0
-0.043216065 0.22900739 0.27399698 250 250 250 -22.490725 -1.2508725 6.8765349 0
-0.048361477 0.23690526 0.27765748 250 250 250 -21.855909 -2.2399695 6.655992 0
-0.053751107 0.24492405 0.27955446 250 250 250 -21.263187 -3.2006435 6.1617417 0
-0.059064493 0.25088519 0.28034222 250 250 250 -20.249079 -4.1387849 5.563704 0
-0.064480394 0.25758702 0.27861652 250 250 250 -18.965557 -5.0928168 4.6358914 0
-0.069970697 0.26542738 0.28007308 250 250 250 -17.961754 -5.3926888 3.6085751 0
-0.074918076 0.27264428 0.28221276 250 250 250 -17.423895 -5.3417602 2.9912195 0
-0.080175206 0.28282616 0.29138556 250 250 250 -17.480268 -4.5399837 2.7711298 0
-0.082658425 0.28980085 0.28945807 250 250 250 -17.930252 -3.9110496 2.9319584 0
-0.083282545 0.29385838 0.28011823 250 250 250 -18.122227 -4.095551 3.0387788 0
-0.084327713 0.29964378 0.27551734 250 250 250 -18.111511 -4.2080035 2.8907676 0
-0.085227914 0.30784258 0.27023613 250 250 250 -18.143713 -4.5193253 2.9463053 0
-0.085437052 0.31233406 0.26616651 250 250 250 -18.167368 -5.0625238 3.2295156 0
-0.086066939 0.31184083 0.26866058 250 250 250 -18.065603 -5.8638897 3.1014378 0
-0.087270863 0.32115194 0.26813206 250 250 250 -17.773376 -6.4317713 2.3494294 0
-0.088369511 0.32927129 0.26538381 250 250 250 -17.629211 -6.5268416 2.180604 0
-0.089608416 0.33741137 0.26529813 250 250 250 -17.519608 -6.1788802 2.2993844 0
-0.090047814 0.34415773 0.26433933 250 250 250 -17.304831 -5.7334404 2.5291841 0
-0.0898256 0.34699711 0.26854312 250 250 250 -17.429186 -5.0365639 2.6711705 0
-0.088940032 0.3532936 0.26661408 250 250 250 -17.494829 -4.6857476 2.3760133 0
-0.087040812 0.36979657 0.25785017 250 250 250 -17.201139 -4.7116122 2.3400073 0
-0.084465191 0.37760967 0.25242862 250 250 250 -16.664083 -4.6678925 3.0603664 0
-0.085133962 0.38231093 0.2522403 250 250 250 -16.128578 -4.5783014 3.4361451 0
-0.086289383 0.38640386 0.25362918 250 250 250 -15.71264 -4.1691995 3.4664481 0
-0.084694736 0.38507608 0.25453293 250 250 250 -15.755043 -3.6018941 3.546047 0
-0.081250839 0.3887735 0.25154266 250 250 250 -16.072147 -3.2964649 3.5970495 0
-0.080236465 0.39773944 0.25044125 250 250 250 -16.196993 -2.964854 3.5215993 0
-0.078308322 0.39940694 0.2483314 250 250 250 -16.050808 -2.6579299 3.7169533 0
-0.075660624 0.40021831 0.24357507 250 250 250 -15.931933 -2.2523444 4.174582 0
-0.075992063 0.40677732 0.24940814 250 250 250 -16.074009 -1.6060916 4.2396383 0
-0.078740746 0.41756776 0.25407949 250 250 250 -16.154003 -1.3900996 3.478384 0
-0.076464728 0.42410234 0.25147247 250 250 250 -15.99819 -1.5065254 2.6796005 0
-0.071253687 0.42786282 0.24778414 250 250 250 -15.574924 -1.7084113 2.4422414 0
-0.064669922 0.41383797 0.24203852 250 250 250 -15.4294 -1.8747613 3.2857449 0
-0.0644508 0.42740193 0.24340796 250 250 250 -15.758867 -1.9771479 3.0564363 0
-0.064149775 0.43911061 0.24241738 250 250 250 -15.666091 -2.5134873 2.6440222 0
-0.062367901 0.43608153 0.23665412 250 250 250 -15.342052 -3.0700929 2.6958394 0
-0.059899759 0.42537829 0.23136535 250 250 250 -15.270724 -2.9280016 3.0857441 0
-0.059350558 0.43445832 0.23238245 250 250 250 -15.764982 -1.8277669 2.8511765 0
-0.056192428 0.42807621 0.22787288 250 250 250 -16.539671 -0.87413818 3.2002804 0
-0.053885169 0.43082145 0.22777067 250 250 250 -16.97156 -0.32636344 3.1192758 0
-0.054247238 0.43428433 0.22724994 250 250 250 -17.145164 0.024219684 2.9113894 0
-0.051822882 0.43242636 0.22709088 250 250 250 -17.461664 0.364546 3.0083823 0
-0.053576242 0.43991539 0.23027118 250 250 250 -17.76421 0.66367114 2.7266109 0
-0.053245924 0.44145483 0.22980067 250 250 250 -17.879711 0.57629871 2.790695 0
-0.052894268 0.44252583 0.228743 250 250 250 -17.898684 0.60171926 2.8694537 0
-0.053283367 0.447164 0.23175652 250 250 250 -17.882566 0.59209055 2.5176291 0
-0.053142354 0.44987974 0.23406708 250 250 250 -17.686615 0.16226898 2.1577554 0
-0.052755032 0.45089209 0.23520729 250 250 250 -17.292782 -0.39024916 1.9508132 0
-0.051748469 0.44609582 0.23666641 250 250 250 -16.852858 -0.8184067 2.0969501 0
-0.050521489 0.44001499 0.23563133 250 250 250 -16.539295 -1.1325039 2.3250401 0
-0.048917864 0.43451387 0.23556463 250 250 250 -16.26115 -1.3027028 2.4833083 0
-0.047424369 0.42970273 0.23639895 250 250 250 -15.984275 -1.2654443 2.6122339 0
-0.045346104 0.42504528 0.2378934 250 250 250 -15.804418 -1.0447913 2.5493901 0
-0.042682286 0.42195931 0.23984699 250 250 250 -15.657806 -0.68698341 2.2420239 0
-0.038406257 0.41962817 0.24151081 250 250 250 -15.506927 -0.29656106 1.91099 0
-0.032488372 0.41623661 0.24244894 250 250 250 -15.358704 0.10795565 1.7993184 0
-0.025832718 0.411782 0.24226832 250 250 250 -15.338062 0.67160153 1.9255136 0
-0.019443804 0.41078249 0.24409063 250 250 250 -15.506264 1.4264661 1.9387753 0
-0.012751754 0.40900874 0.24481857 250 250 250 -15.613051 1.8787285 1.9616441 0
-0.0063980808 0.40864265 0.24807103 250 250 250 -15.695348 2.3362525 1.9088839 0
-6.659377e-05 0.40606454 0.25425553 250 250 250 -15.770347 2.4059722 1.5305773 0
0.0072318153 0.40466422 0.25857085 250 250 250 -15.644734 1.9028867 0.84701478 0
0.013121117 0.40288147 0.261343 250 250 250 -15.581782 1.3282521 0.31737176 0
0.021174239 0.40076232 0.26400229 250 250 250 -15.437817 0.74872142 -0.1234097 0
0.028907176 0.40120304 0.26601684 250 250 250 -15.35829 0.3895168 -0.20686148 0
0.036944851 0.39540884 0.26293111 250 250 250 -15.270162 0.38198942 0.41648948 0
0.044107683 0.3914741 0.26631975 250 250 250 -15.338816 0.93209189 0.99876827 0
0.051935632 0.38814232 0.27435488 250 250 250 -15.7099 1.4532455 1.1910961 0
0.059997652 0.3862077 0.28147653 250 250 250 -15.899205 1.6370414 1.033177 0
0.067692213 0.38864046 0.2934379 250 250 250 -16.000111 1.9623313 0.33984897 0
0.080930464 0.37704703 0.28740901 250 250 250 -15.723215 1.704124 -0.0084296009 0
0.091445506 0.3694239 0.28575414 250 250 250 -15.625937 2.0747237 -0.20441581 0
0.10278404 0.36363053 0.28681347 250 250 250 -15.701293 2.5750256 -0.51989776 0
0.11533608 0.35863024 0.29024449 250 250 250 -15.63085 2.9193223 -0.8492803 0
0.12758058 0.35392413 0.29201233 250 250 250 -15.411654 3.0350876 -1.3171095 0
0.13990435 0.34897375 0.29281503 250 250 250 -15.139823 3.2448201 -1.8018392 0
0.15198322 0.3465187 0.29234579 250 250 250 -14.996884 3.5053422 -2.1549823 0
0.16432615 0.34450167 0.29300818 250 250 250 -14.914728 3.9269822 -2.1642325 0
0.17676148 0.34168682 0.29436725 250 250 250 -14.826298 4.3050504 -2.0685871 0
0.18863726 0.34017712 0.29504964 250 250 250 -14.881915 4.4946899 -1.9383265 0
0.20054543 0.3383806 0.2958183 250 250 250 -14.928913 4.7025261 -1.6179326 0
0.2120866 0.33651772 0.29663041 250 250 250 -15.029516 4.8267641 -1.6030968 0
0.22295685 0.33465406 0.29620057 250 250 250 -14.87026 5.0230675 -1.7100799 0
0.23363596 0.33075622 0.29637307 250 250 250 -14.750787 5.4890494 -2.000113 0
0.24603075 0.3277269 0.29760143 250 250 250 -14.691647 5.97401 -2.4561114 0
0.25720692 0.32706046 0.29819578 250 250 250 -14.604455 6.3423405 -2.6617656 0
0.26811919 0.32584578 0.29922169 250 250 250 -14.398123 6.8021455 -2.5078309 0
0.2790066 0.32218492 0.30380622 250 250 250 -14.183584 7.1109014 -2.484235 0
0.28916919 0.31993872 0.304737 250 250 250 -13.962473 6.8074875 -2.7565873 0
0.29888171 0.31842679 0.3049944 250 250 250 -13.72034 6.6964345 -2.9102287 0
0.30818146 0.31839895 0.30282515 250 250 250 -13.477758 6.8114347 -2.837837 0
0.31742665 0.3170943 0.30085811 250 250 250 -13.260834 7.3344135 -2.4904954 0
0.32652688 0.31726533 0.29877919 250 250 250 -13.033961 7.9943023 -2.2652874 0
0.33559227 0.31489703 0.29728755 250 250 250 -12.861623 8.7304068 -1.7739046 0
0.34431881 0.31181225 0.29603371 250 250 250 -12.890962 9.2208214 -1.6513653 0
0.35261515 0.31277716 0.29388118 250 250 250 -12.944227 9.4721441 -1.7867451 0
0.36040911 0.31368682 0.2912004 250 250 250 -12.927534 9.7499218 -1.6867646 0
0.36777967 0.31459758 0.28662768 250 250 250 -12.829614 10.234515 -1.5255172 0
0.37567246 0.31342679 0.28444272 250 250 250 -12.913313 11.184024 -1.2578329 0
0.38420981 0.31241268 0.2849406 250 250 250 -13.140478 11.882725 -1.4020932 0
0.39255676 0.31185573 0.28508249 250 250 250 -13.241022 11.989435 -1.8205955 0
0.40049773 0.31309128 0.28386369 250 250 250 -13.282662 11.87051 -2.1392372 0
0.40865511 0.31561241 0.28338867 250 250 250 -13.483661 12.007476 -2.1101925 0
0.41632465 0.31831786 0.28284964 250 250 250 -13.737505 12.039141 -1.71156 0
0.42257369 0.32062626 0.28188568 250 250 250 -13.794048 11.888906 -1.0764804 0
0.42822784 0.3226544 0.27920294 250 250 250 -13.827147 11.7474 -0.4899013 0
0.4337112 0.32377598 0.27651283 250 250 250 -13.656991 11.812493 0.014964588 0
0.43901765 0.32629126 0.27334338 250 250 250 -13.310189 11.870563 0.60369676 0
0.4439441 0.32655361 0.27025589 250 250 250 -12.933746 12.061841 1.6863828 0
0.44865173 0.3256987 0.26871926 250 250 250 -12.83842 12.484591 2.4363685 0
0.45316833 0.32488507 0.26718098 250 250 250 -12.676854 12.68773 2.8699436 0
0.45768493 0.32414773 0.26551452 250 250 250 -12.314235 12.827156 3.3526335 0
0.46219698 0.32253957 0.263742 250 250 250 -11.838103 12.904519 3.820538 0
0.46637046 0.32119676 0.26080567 250 250 250 -11.414055 12.967868 4.1364536 0
0.47081688 0.31986549 0.25842598 250 250 250 -10.920607 13.145799 4.5869403 0
0.47525033 0.3177861 0.25625086 250 250 250 -10.493732 13.164406 5.0067959 0
0.4791539 0.31588888 0.25354797 250 250 250 -10.301103 13.076133 5.1974416 0
0.48269778 0.31337845 0.24959742 250 250 250 -10.404223 13.143829 5.2205071 0
0.48553151 0.31451732 0.24523045 250 250 250 -10.7813 13.420001 4.7598586 0
0.487813 0.31886062 0.24050641 250 250 250 -11.129294 13.852407 4.606544 0
0.48990956 0.32037732 0.23660009 250 250 250 -11.510126 14.462385 5.0747957 0
0.4919191 0.31912801 0.23448317 250 250 250 -12.082365 15.048025 5.2830186 0
0.4930627 0.31826448 0.23403537 250 250 250 -12.441172 15.213732 5.139812 0
0.49186558 0.31723282 0.23424098 250 250 250 -12.548139 15.031008 5.1485691 0
0.48954743 0.31492913 0.23470102 250 250 250 -12.576173 14.879817 5.288331 0
0.48693094 0.31185779 0.23532234 250 250 250 -12.344207 14.697708 5.425971 0
0.48343724 0.30846927 0.23569374 250 250 250 -12.026772 14.515286 5.600596 0
0.47973305 0.30506501 0.23567945 250 250 250 -11.680425 14.534044 6.0516152 0
0.47652441 0.2988821 0.23716003 250 250 250 -11.411762 14.577139 6.6967235 0
0.47266614 0.29227844 0.23746185 250 250 250 -11.56078 14.446881 6.7601814 0
0.4689953 0.28696352 0.23735024 250 250 250 -11.717756 14.489689 6.4535108 0
0.46519619 0.28311551 0.23683958 250 250 250 -11.767189 14.513246 6.3350997 0
0.46186706 0.2777676 0.23665717 250 250 250 -11.691422 14.709299 6.4786148 0
0.45933688 0.27253866 0.2381198 250 250 250 -11.422355 14.949707 6.3886838 0
0.4574964 0.26728371 0.23935474 250 250 250 -10.718796 14.863239 6.2928958 0
0.45574337 0.26163635 0.23991407 250 250 250 -9.8755102 14.57742 6.4035172 0
0.45412222 0.25475943 0.23995973 250 250 250 -9.3016138 14.425111 6.5239201 0
0.45281497 0.24805167 0.23997611 250 250 250 -8.9169664 14.560596 6.5652642 0
0.45209944 0.2411529 0.24026801 250 250 250 -8.3691053 14.670123 6.8289394 0
0.45213374 0.23247111 0.24120574 250 250 250 -8.2868805 14.724964 7.0750518 0
0.45033044 0.22665313 0.23852859 250 250 250 -9.2129107 14.73889 6.8257847 0
0.44876143 0.22083229 0.23565389 250 250 250 -9.8949318 15.455166 7.1504107 0
0.45096114 0.2138949 0.24105127 250 250 250 -9.7772303 16.084101 8.0292454 0
0.45350423 0.20021763 0.24414571 250 250 250 -9.7405138 15.800917 8.8903027 0
0.45309648 0.19100899 0.24423145 250 250 250 -10.955437 15.846647 8.5030804 0
0.45316675 0.18142898 0.24353226 250 250 250 -12.099223 16.401478 7.7488713 0
0.45788687 0.17734244 0.25412837 250 250 250 -12.495541 17.024546 7.1305904 0
0.46096626 0.17128053 0.25982791 250 250 250 -11.939432 16.103996 7.2025046 0
0.45959899 0.16154611 0.25543672 250 250 250 -11.706513 14.931633 7.2171164 0
0.45915142 0.15380907 0.25546721 250 250 250 -11.625163 14.652455 6.9431148 0
0.46024969 0.14692409 0.25972813 250 250 250 -11.013122 14.106132 7.0351796 0
0.45835713 0.13953227 0.26011407 250 250 250 -10.566647 13.170279 7.1548333 0
0.45648375 0.13236865 0.25936821 250 250 250 -10.385432 12.752972 7.2824268 0
0.45564663 0.1257623 0.26006573 250 250 250 -10.065116 12.436778 7.4257941 0
0.45428282 0.11859586 0.25853825 250 250 250 -9.9383593 11.973386 7.7606988 0
0.45323363 0.11150943 0.25720519 250 250 250 -10.16626 11.921157 7.9578128 0
0.45238462 0.10699738 0.25647545 250 250 250 -10.257725 12.001413 8.0349226 0
0.45183933 0.10268175 0.25591716 250 250 250 -9.8634424 11.928137 8.5278845 0
0.45190069 0.096076757 0.25576213 250 250 250 -9.4107141 11.77485 9.0213366 0
0.45110965 0.090808012 0.25338951 250 250 250 -9.3420868 11.605727 9.1647701 0
0.45100322 0.085491836 0.25137943 250 250 250 -9.2566748 11.92801 9.5835934 0
0.45111838 0.079400383 0.24958789 250 250 250 -9.300951 12.249193 9.9106865 0
0.45151287 0.074195884 0.24867928 250 250 250 -9.110878 12.634465 10.111952 0
0.45333996 0.067170113 0.24991184 250 250 250 -8.1624088 12.741795 10.622756 0
0.45396441 0.058866706 0.24678138 250 250 250 -7.8224053 12.474432 10.699518 0
0.45281652 0.055880342 0.24331565 250 250 250 -8.299592 12.788222 10.275043 0
0.45330858 0.051039424 0.24217342 250 250 250 -8.3032007 13.482238 10.628491 0
0.45596004 0.043906018 0.24430762 250 250 250 -7.8035903 13.582215 11.103703 0
0.45610529 0.03770851 0.2424728 250 250 250 -7.7915483 13.209592 11.070293 0
0.45656309 0.032258265 0.24210341 250 250 250 -7.6774502 13.286874 11.17733 0
0.45757315 0.026196005 0.24225241 250 250 250 -7.3445578 13.152524 11.472422 0
0.45825723 0.019922663 0.24170877 250 250 250 -7.2036014 12.799555 11.66409 0
0.45890388 0.01338313 0.24123377 250 250 250 -7.2670145 12.530635 11.613583 0
0.45903462 0.0083341813 0.24088208 250 250 250 -7.371592 12.362005 11.287341 0
0.45931476 0.0038399664 0.24156792 250 250 250 -6.857091 12.096601 11.288982 0
0.4586086 -0.0010914356 0.24113798 250 250 250 -6.1550813 11.605967 11.503739 0
0.45668781 -0.0059915013 0.23846054 250 250 250 -6.0569539 11.260557 11.645928 0
0.45458162 -0.010013904 0.23652919 250 250 250 -6.1313696 11.349948 11.739647 0
0.45231909 -0.013231458 0.23542944 250 250 250 -6.1703691 11.444529 11.683864 0
0.44959044 -0.014584051 0.23569509 250 250 250 -6.354866 11.44538 11.506754 0
0.44530645 -0.012304429 0.23775543 250 250 250 -6.8285437 11.196821 11.313108 0
0.43730721 -0.0067504803 0.23911335 250 250 250 -7.3296933 10.564924 11.498495 0
0.42782587 -0.0062349322 0.23553269 250 250 250 -7.8269668 10.162774 12.06793 0
0.41958803 -0.0056089638 0.23451416 250 250 250 -8.8945818 10.55763 11.906296 0
0.41139349 -0.0040946966 0.2359724 250 250 250 -9.8140039 10.887407 11.227057 0
0.40241918 -0.0019297955 0.23672757 250 250 250 -10.281551 10.970042 10.725562 0
0.39371133 -0.00043805919 0.23807015 250 250 250 -10.654004 11.131328 10.347652 0
0.38429242 0.0016080136 0.23944312 250 250 250 -10.928717 11.090282 9.9963226 0
0.3743529 0.0031754959 0.24019016 250 250 250 -11.221136 10.885115 9.8370895 0
0.36370096 0.0045001246 0.24032214 250 250 250 -11.59111 10.848043 9.5779581 0
0.35302883 0.005693478 0.24086742 250 250 250 -11.831287 11.030947 9.3779745 0
0.34250119 0.005955602 0.24181376 250 250 250 -12.015825 11.079808 9.1666689 0
0.33182284 0.0060471036 0.24291021 250 250 250 -12.235066 11.003644 8.9014292 0
0.32109836 0.0054989834 0.24399079 250 250 250 -12.495834 10.910588 8.4690914 0
0.30996442 0.0050137443 0.24498123 250 250 250 -12.646356 10.909223 7.8018174 0
0.29895711 0.0043968088 0.24633281 250 250 250 -12.817038 10.934067 6.9748092 0
0.28640369 0.0077959988 0.24708474 250 250 250 -13.158647 10.816348 6.1861949 0
0.27400023 0.010440299 0.24742074 250 250 250 -13.447863 10.715066 5.973289 0
0.26170304 0.011879413 0.24800645 250 250 250 -13.754466 10.722221 5.753778 0
0.25016171 0.012697823 0.24956821 250 250 250 -13.974773 10.806339 5.3561506 0
0.23881906 0.012185944 0.25181398 250 250 250 -14.269914 10.683562 4.7769341 0
0.2269873 0.011497608 0.25295299 250 250 250 -14.610028 10.394304 3.8696108 0
0.21551436 0.011290654 0.25392959 250 250 250 -14.702346 10.202406 2.7729445 0
0.20328029 0.014262102 0.25399959 250 250 250 -14.599151 9.7852268 1.8170921 0
0.1915748 0.014396845 0.25457197 250 250 250 -14.333465 9.4015608 1.3863848 0
0.17969267 0.01467302 0.25483912 250 250 250 -14.177835 8.9697466 0.75504988 0
0.16764569 0.015810642 0.25476456 250 250 250 -13.989808 8.5844584 0.32448968 0
0.15552427 0.016923413 0.25463974 250 250 250 -13.905636 8.1813631 0.15863161 0
0.14306462 0.017866023 0.25400937 250 250 250 -13.973806 7.8890462 0.15086502 0
0.13018993 0.015755085 0.25182346 250 250 250 -14.283547 8.0135126 -0.18835506 0
0.11774544 0.01403589 0.25083187 250 250 250 -14.748618 8.4713898 -1.1732743 0
0.10625052 0.017754404 0.2545315 250 250 250 -15.012307 8.8742418 -2.1026359 0
0.095154256 0.019459127 0.25861844 250 250 250 -14.609724 8.7419977 -2.3157282 0
0.083534203 0.018885035 0.26071122 250 250 250 -14.25341 8.1630516 -2.6970501 0
0.071460195 0.02225025 0.2617484 250 250 250 -14.065178 7.5709457 -3.2582359 0
0.059775516 0.022099165 0.26294202 250 250 250 -13.632589 6.956676 -3.415035 0
0.047988962 0.022476288 0.26386395 250 250 250 -13.210718 6.2727966 -3.7912793 0
0.036450472 0.022584047 0.2645914 250 250 250 -12.603056 5.5348697 -4.1202226 0
0.024729319 0.022526253 0.26323864 250 250 250 -12.133993 4.8542361 -4.5315304 0
0.013636381 0.022570984 0.26289651 250 250 250 -11.667922 4.4226613 -4.9107461 0
0.0028386561 0.022698538 0.26243412 250 250 250 -11.093072 3.7355201 -5.3288832 0
-0.0077994894 0.022955464 0.26143876 250 250 250 -10.575868 2.9825695 -5.6615605 0
-0.018138429 0.023278883 0.26013711 250 250 250 -10.292554 2.2612572 -5.8753181 0
-0.028379889 0.024700103 0.25847825 250 250 250 -10.148079 1.7523596 -6.1072092 0
-0.037251044 0.02556132 0.25720549 250 250 250 -9.8216162 1.4488834 -6.1855278 0
-0.045433428 0.025641125 0.2559537 250 250 250 -9.441884 1.1017135 -6.2902632 0
-0.053459041 0.025652064 0.25460878 250 250 250 -9.0589991 0.8058219 -6.4400015 0
-0.061384883 0.025863128 0.25338697 250 250 250 -8.8142014 0.57730776 -6.629312 0
-0.068644613 0.025805058 0.25219971 250 250 250 -8.6059465 0.32499021 -6.5906553 0
-0.075001091 0.025442164 0.25123441 250 250 250 -8.5021629 -0.071896575 -6.5709672 0
-0.081358187 0.026976107 0.2501432 250 250 250 -8.3753901 -0.57134891 -6.4521489 0
-0.086909108 0.027729077 0.24907701 250 250 250 -8.1641693 -0.86144626 -6.0857687 0
-0.091885209 0.027825497 0.24701944 250 250 250 -7.9737191 -1.0898761 -5.9171138 0
-0.095119834 0.027772432 0.24592592 250 250 250 -7.6311903 -1.3339808 -6.1703053 0
-0.098948441 0.031643316 0.24452506 250 250 250 -7.2429147 -1.4953668 -6.5155811 0
-0.10181246 0.035571806 0.24412496 250 250 250 -6.7992945 -1.6253868 -6.5541677 0
-0.10434668 0.039865274 0.2440352 250 250 250 -6.5514312 -1.9542069 -6.4160295 0
-0.10691223 0.044932771 0.24424502 250 250 250 -6.315002 -2.4712217 -6.0181284 0
-0.10937331 0.05010001 0.24452084 250 250 250 -5.979393 -3.1005893 -5.6250687 0
-0.1118895 0.057079561 0.24467354 250 250 250 -5.7237835 -3.8938923 -5.5436149 0
-0.11440986 0.066090263 0.24505666 250 250 250 -5.6283555 -4.7067842 -5.4971232 0
-0.11731499 0.077283032 0.24582803 250 250 250 -5.5923147 -5.2518897 -5.2881761 0
-0.12016778 0.088464893 0.24509603 250 250 250 -5.9604559 -5.7580795 -4.965405 0
-0.12162651 0.099531248 0.24426585 250 250 250 -6.0865684 -6.3239355 -5.161139 0
-0.12308655 0.11203364 0.24408206 250 250 250 -5.6087279 -7.1752148 -5.6383123 0
-0.12455913 0.12543121 0.24602413 250 250 250 -4.9564252 -8.0836172 -6.042913 0
-0.12580644 0.13818167 0.2493813 250 250 250 -4.455348 -9.1551418 -5.9912596 0
-0.128483 0.15086842 0.25045615 250 250 250 -4.1279387 -10.500804 -5.9943547 0
-0.12857148 0.14633697 0.25537264 250 250 250 -3.964761 -12.280349 -6.0776401 0
-0.13150172 0.17878079 0.25025597 250 250 250 -3.8758678 -13.962145 -7.5817413 0
-0.13617823 0.21222882 0.25895041 250 250 250 -4.2236218 -13.987601 -7.95226 0
-0.14040707 0.23165233 0.25695288 250 250 250 -5.03894 -13.873793 -7.432261 0
-0.13526867 0.23767155 0.25042027 250 250 250 -6.1486545 -13.655979 -7.0115037 0
-0.13402066 0.2545296 0.24821815 250 250 250 -6.7525287 -13.046515 -7.231286 0
-0.13395928 0.26492724 0.24816795 250 250 250 -6.8517385 -12.757639 -7.0296006 0
-0.13415925 0.27224803 0.24661957 250 250 250 -6.7073293 -13.196499 -7.0719514 0
-0.13583177 0.28117189 0.2487032 250 250 250 -6.169373 -14.246721 -7.6832776 0
-0.13848768 0.2928651 0.25112081 250 250 250 -4.9348292 -16.236294 -7.9423184 0
-0.14085869 0.30757284 0.24807259 250 250 250 -4.1145749 -17.697165 -7.6176448 0
-0.14394039 0.31324267 0.24616951 250 250 250 -4.0064383 -18.07148 -6.9655905 0
-0.14556086 0.33512571 0.2410078 250 250 250 -3.9771607 -17.983463 -6.6957803 0
-0.14749719 0.33998945 0.2384271 250 250 250 -4.7195454 -17.303062 -5.4745688 0
-0.15053424 0.3445361 0.23855139 250 250 250 -5.5305257 -16.410656 -4.6075983 0
-0.15339939 0.34978256 0.23871034 250 250 250 -6.3348017 -15.777288 -4.1984229 0
-0.15537862 0.35864034 0.23878382 250 250 250 -6.9537363 -15.304342 -3.8702528 0
-0.15749912 0.36805332 0.24033925 250 250 250 -7.6080446 -14.73459 -3.2983923 0
-0.15854771 0.37965479 0.23831698 250 250 250 -8.3035107 -14.127381 -2.8022761 0
-0.16102691 0.38330239 0.23943286 250 250 250 -8.9567385 -13.166021 -2.3459704 0
-0.16156909 0.39309448 0.24013038 250 250 250 -9.5040751 -12.519956 -2.8806598 0
-0.16065334 0.4121246 0.23765104 250 250 250 -9.3628225 -12.614928 -3.6411734 0
-0.15915985 0.42133716 0.23615614 250 250 250 -9.0951357 -12.514847 -3.5076442 0
-0.15720497 0.42981905 0.23423734 250 250 250 -9.2104969 -12.021912 -2.9647548 0
-0.15631738 0.44081831 0.2340454 250 250 250 -9.6283255 -11.045098 -2.1148453 0
-0.15541717 0.44349438 0.23543531 250 250 250 -10.469699 -10.045564 -1.0685079 0
-0.14990897 0.45306507 0.23388779 250 250 250 -11.379662 -9.5568628 -0.85348099 0
-0.14445625 0.46294546 0.2315447 250 250 250 -11.889808 -9.5659781 -0.9978475 0
-0.1403133 0.46730912 0.23375991 250 250 250 -12.294868 -9.2339554 -0.89899188 0
-0.13508372 0.47022173 0.2363106 250 250 250 -13.034598 -8.7265158 -0.90200239 0
-0.12961362 0.47686449 0.23739277 250 250 250 -13.681833 -8.0902882 -1.1466411 0
-0.1239165 0.48338011 0.23772466 250 250 250 -14.288546 -7.3676543 -1.2800151 0
-0.11779311 0.49078616 0.23776071 250 250 250 -15.136445 -6.177146 -1.2665507 0
-0.1125972 0.49826357 0.23729774 250 250 250 -16.221085 -4.6065764 -0.95314795 0
-0.1078315 0.50274009 0.23413126 250 250 250 -17.04335 -3.6354513 -0.57934469 0
-0.10432032 0.50853866 0.22952953 250 250 250 -17.399033 -3.572782 -0.59880793 0
-0.10149304 0.50817502 0.22752725 250 250 250 -17.292868 -4.3707385 -0.83839351 0
-0.099353187 0.50474811 0.22642048 250 250 250 -16.609793 -5.9627275 -1.3402172 0
-0.097398438 0.51290029 0.22806664 250 250 250 -15.73 -7.4924588 -1.995271 0
-0.095908783 0.50915051 0.23358983 250 250 250 -15.302211 -8.4968262 -1.6990391 0
-0.095716476 0.49732196 0.24140264 250 250 250 -15.156281 -8.6741962 -1.2647948 0
-0.093446456 0.49718529 0.24467589 250 250 250 -15.019418 -8.9489202 -1.666489 0
-0.089677252 0.49692464 0.24788025 250 250 250 -14.684493 -9.5692282 -2.0644846 0
-0.085917003 0.49676242 0.25059927 250 250 250 -14.023714 -10.80495 -2.6985798 0
-0.08377026 0.49138165 0.25802034 250 250 250 -13.512519 -11.518689 -3.2054107 0
-0.081008136 0.48055217 0.26381713 250 250 250 -13.280345 -11.707112 -3.3049212 0
-0.077039689 0.47500029 0.27104604 250 250 250 -13.332632 -11.54249 -3.6545918 0
-0.071194001 0.4732047 0.27497104 250 250 250 -13.479902 -11.678689 -3.9490592 0
-0.065225124 0.47058681 0.2794264 250 250 250 -13.688833 -11.765715 -4.1808724 0
-0.058817007 0.46613204 0.28447664 250 250 250 -14.153852 -11.55665 -4.1921644 0
-0.050766956 0.46441013 0.28632686 250 250 250 -14.875402 -11.123543 -4.0603652 0
-0.042080447 0.46920577 0.28854799 250 250 250 -15.894132 -10.735397 -3.9068899 0
-0.034596734 0.46184686 0.29392949 250 250 250 -16.77718 -10.61426 -3.8750451 0
-0.026241967 0.44526643 0.29919532 250 250 250 -17.683891 -10.844183 -4.7370572 0
-0.016359674 0.42790908 0.300327 250 250 250 -18.324352 -11.542879 -6.592504 0
-5.2668311e-05 0.44899237 0.29123139 250 250 250 -18.176979 -12.602987 -9.1911182 0
0.016195949 0.44767949 0.29033241 250 250 250 -17.586063 -12.616702 -9.7061539 0
0.032879058 0.43301302 0.28722525 250 250 250 -17.553061 -11.883581 -8.9505615 0
0.048322495 0.42484045 0.29220346 250 250 250 -18.034119 -10.227437 -8.2775106 0
0.06519004 0.4182038 0.29081455 250 250 250 -18.000006 -9.1507435 -8.1582909 0
0.084257394 0.41170415 0.29050168 250 250 250 -17.708483 -7.6373563 -7.684072 0
0.10304277 0.40528557 0.29024124 250 250 250 -17.595732 -5.5530133 -7.0270362 0
0.12208876 0.39823425 0.28848124 250 250 250 -17.528715 -3.4112737 -6.3761687 0
0.14144066 0.38939905 0.28445405 250 250 250 -17.411818 -1.5625776 -5.9443259 0
0.16292256 0.38532946 0.28692135 250 250 250 -17.192034 0.33956447 -5.6048627 0
0.18504062 0.38084161 0.29285562 250 250 250 -16.838011 1.9531012 -4.3392892 0
0.20455439 0.37719935 0.297712 250 250 250 -16.92712 2.8931301 -3.1052449 0
0.22406149 0.37607619 0.29918587 250 250 250 -16.843283 3.5139177 -1.8554318 0
0.24098007 0.37411591 0.29873872 250 250 250 -16.692095 4.0840745 -0.17092662 0
0.25771818 0.365098 0.30058849 250 250 250 -16.794333 4.718863 1.1130903 0
0.27378973 0.36162731 0.30079967 250 250 250 -17.295496 5.1910543 1.3683543 0
0.28838152 0.37070608 0.29728571 250 250 250 -17.54134 5.527679 1.8128424 0
0.30026302 0.37362719 0.2930268 250 250 250 -17.429386 5.9409437 3.1312547 0
0.31197444 0.3770273 0.28686792 250 250 250 -17.233875 6.5546079 4.5875559 0
0.32245702 0.37845945 0.27874932 250 250 250 -16.693729 7.406683 6.6752372 0
0.33211911 0.37819582 0.27820715 250 250 250 -16.37801 8.8015966 8.6925421 0
0.34119499 0.38009781 0.27945963 250 250 250 -16.020544 9.7738075 10.080422 0
0.35040045 0.37985289 0.28066391 250 250 250 -15.270212 10.248647 11.267505 0
0.3578774 0.37879306 0.27908924 250 250 250 -14.515302 10.48516 12.337564 0
0.3652693 0.37744322 0.27819782 250 250 250 -13.790645 10.897703 13.59903 0
0.37265509 0.37592864 0.27925581 250 250 250 -13.269919 11.236734 14.621376 0
0.37795866 0.3742145 0.27909657 250 250 250 -12.772781 11.204606 15.496391 0
0.38167331 0.37194017 0.27925918 250 250 250 -12.606828 11.295752 16.448408 0
0.38555077 0.37162718 0.2836507 250 250 250 -12.726066 11.344866 17.395742 0
0.38649157 0.36854029 0.28757983 250 250 250 -12.915996 10.762659 18.419153 0
0.38484982 0.36816931 0.28899038 250 250 250 -13.119953 9.9872341 19.035622 0
0.3791413 0.36508146 0.2848638 250 250 250 -12.783878 9.1243639 20.121635 0
0.37448102 0.35337263 0.28225887 250 250 250 -12.735095 9.2386265 21.791161 0
0.37206984 0.34219238 0.28244388 250 250 250 -12.973947 9.7797432 22.682753 0
0.37093231 0.3324779 0.28324214 250 250 250 -13.186412 10.364986 22.882959 0
0.37020388 0.32299301 0.28412917 250 250 250 -13.300542 10.736403 23.222965 0
0.36883557 0.31041241 0.2833268 250 250 250 -13.455214 11.049656 23.843647 0
0.37111673 0.30084521 0.28831416 250 250 250 -13.637214 11.633209 23.963585 0
0.37361342 0.29099616 0.2938574 250 250 250 -13.15376 11.446548 23.903126 0
0.37483698 0.27912194 0.29556131 250 250 250 -12.371137 10.404316 24.058376 0
0.37568641 0.26591119 0.2956644 250 250 250 -12.070922 9.8428717 24.250097 0
0.37753063 0.25355628 0.29858011 250 250 250 -11.570874 9.295929 24.244062 0
0.37995794 0.2380967 0.30080557 250 250 250 -10.926171 8.1632757 24.161819 0
0.38318753 0.22370505 0.30086222 250 250 250 -11.137752 7.7470188 23.744858 0
0.38541859 0.21288623 0.30311501 250 250 250 -11.212519 7.3970299 23.7589 0
0.38035423 0.20730528 0.31396171 250 250 250 -11.365567 6.1906147 22.839165 0
0.38515779 0.18109444 0.30489275 250 250 250 -11.092308 4.4547 21.783421 0
0.38999155 0.15760072 0.30323705 250 250 250 -10.788336 4.3681073 21.481966 0
0.39982197 0.13997933 0.30302528 250 250 250 -11.064483 4.6947188 22.254482 0
0.40193579 0.13451163 0.29852533 250 250 250 -11.122972 4.8786974 23.196035 0
0.39626446 0.13207304 0.3009913 250 250 250 -10.686584 5.4289293 24.157679 0
0.39751959 0.11327473 0.30180988 250 250 250 -10.476947 5.6367407 25.010145 0
0.39718193 0.1022173 0.30091235 250 250 250 -10.651724 5.8849902 24.763388 0
0.39586216 0.10076827 0.30165711 250 250 250 -10.526236 6.2860746 24.702293 0
0.39837718 0.091248535 0.30230364 250 250 250 -10.284604 6.3658128 25.330048 0
0.40158108 0.075689018 0.29964268 250 250 250 -10.437577 6.5334787 25.733736 0
0.39973488 0.073158689 0.29802775 250 250 250 -11.019184 7.1629257 25.712967 0
0.39980835 0.068539403 0.29942065 250 250 250 -10.793095 7.2683702 26.006428 0
0.39947882 0.062060542 0.29842347 250 250 250 -10.4041 6.8467102 25.874693 0
0.39903566 0.055201896 0.29729924 250 250 250 -10.553018 6.9469433 25.352659 0
0.3984226 0.050385155 0.29690525 250 250 250 -10.561735 7.5969377 25.55448 0
0.39935252 0.042819571 0.29702389 250 250 250 -10.083452 7.5268517 25.977077 0
0.40067318 0.02991016 0.2953904 250 250 250 -9.5834866 7.0796056 26.098173 0
0.40115318 0.019730335 0.29318663 250 250 250 -9.0687647 6.8892822 25.755604 0
0.40164661 0.010191705 0.29356799 250 250 250 -8.5675402 6.6405749 25.288862 0
0.39987218 0.004137157 0.29230803 250 250 250 -8.6046209 6.3502502 25.08473 0
0.39845723 -0.0012948565 0.29240349 250 250 250 -8.6858854 6.2166781 25.053839 0
0.39523515 -0.0045056269 0.291197 250 250 250 -8.9892998 5.9122376 24.714964 0
0.39093244 -0.0056783888 0.28963113 250 250 250 -9.4382 5.8558412 24.365452 0
0.38651711 -0.0064969412 0.28875262 250 250 250 -9.9826469 5.9831576 24.010468 0
0.38066927 -0.0070580575 0.28770083 250 250 250 -10.501092 6.2451272 23.606319 0
0.37492412 -0.0076898355 0.28925896 250 250 250 -10.631045 6.4099131 23.008839 0
0.36808708 -0.011951898 0.28632435 250 250 250 -10.732794 6.2911263 22.267824 0
0.35947251 -0.011722696 0.28625068 250 250 250 -11.143874 6.5866532 21.257135 0
0.34945124 -0.0093140714 0.28622293 250 250 250 -11.362076 6.65275 20.509096 0
0.3377634 -0.014313556 0.28219929 250 250 250 -11.658446 6.7267942 20.31497 0
0.32718134 -0.017774867 0.28081933 250 250 250 -12.322967 7.1935854 19.7505 0
0.31577674 -0.018837119 0.28078368 250 250 250 -12.781147 7.5472078 18.941839 0
0.30453491 -0.019979438 0.28151286 250 250 250 -12.852127 7.752871 18.198496 0
0.29416287 -0.025630634 0.2806609 250 250 250 -13.074806 7.7284985 17.349718 0
0.28066701 -0.028297151 0.27572033 250 250 250 -13.661058 7.7152681 16.149641 0
0.26807219 -0.028817844 0.27654448 250 250 250 -14.119218 8.288043 14.843031 0
0.25619009 -0.028791297 0.27931461 250 250 250 -14.240676 8.6508961 13.615445 0
0.24442521 -0.028846851 0.28232202 250 250 250 -14.199224 8.5880795 12.375484 0
0.23112504 -0.029246451 0.28154814 250 250 250 -14.182747 8.1278038 11.172832 0
0.2175812 -0.028546214 0.2811653 250 250 250 -14.261733 7.7686253 10.05687 0
0.20419186 -0.027421318 0.28162888 250 250 250 -14.166755 7.2565155 9.251421 0
0.19129115 -0.030256663 0.28058532 250 250 250 -13.963695 6.6462574 8.5352497 0
0.17807794 -0.03158069 0.27997109 250 250 250 -13.935596 6.0585661 7.537621 0
0.16465114 -0.031520817 0.27919108 250 250 250 -13.704345 5.4024673 6.6558189 0
0.15138404 -0.033183202 0.27810231 250 250 250 -13.433324 4.7956605 5.8789101 0
0.13828588 -0.034082036 0.27680647 250 250 250 -13.303379 4.1839604 4.9004359 0
0.12494088 -0.031398449 0.27424508 250 250 250 -13.239562 3.5260355 4.1981883 0
0 0 0 1 0 0 0 1 0 0 0 1 0 0 0 0 0 601 1 0 0
